<svg xmlns="http://www.w3.org/2000/svg" width="856" height="756" viewBox="0 0 856 756" version="1.1"><path d="M 399.500 99.605 C 391.709 100.724, 382.408 103.292, 366.500 108.716 C 359.350 111.154, 352.150 113.540, 350.500 114.017 C 348.850 114.495, 344.125 115.860, 340 117.052 C 329.197 120.172, 324.595 121.014, 314.788 121.664 C 304.913 122.318, 306.038 121.148, 302.442 134.500 C 301.554 137.800, 300.447 141.850, 299.982 143.500 C 299.518 145.150, 298.176 150.100, 297 154.500 C 295.824 158.900, 294.443 163.963, 293.931 165.750 C 293.419 167.537, 292.581 170.463, 292.069 172.250 C 291.557 174.037, 290.176 179.100, 289 183.500 C 287.824 187.900, 286.482 192.850, 286.018 194.500 C 285.553 196.150, 284.440 200.200, 283.544 203.500 C 282.648 206.800, 281.025 212.650, 279.937 216.500 C 278.849 220.350, 277.466 225.300, 276.864 227.500 C 276.261 229.700, 275.422 232.625, 275 234 C 274.578 235.375, 273.767 238.300, 273.198 240.500 C 271.176 248.329, 268.967 256.315, 266.976 263 C 266.567 264.375, 265.730 267.413, 265.116 269.750 C 264.502 272.087, 263.498 275.913, 262.884 278.250 C 262.270 280.587, 261.422 283.625, 261 285 C 257.583 296.122, 257.583 296.123, 259.065 297.061 C 264.150 300.279, 307.281 295.880, 328.500 289.979 C 335.781 287.955, 345.358 285.942, 361.417 283.061 C 373.701 280.858, 393.357 281.789, 406.500 285.197 C 418.581 288.330, 432.384 296.194, 439.295 303.883 L 443.089 308.105 450.119 301.596 C 461.998 290.598, 471.504 286.399, 492.241 282.992 C 507.127 280.546, 533.139 283.383, 556.500 290 C 574.077 294.978, 595.770 297.981, 614.250 297.992 C 629.964 298.001, 629.212 298.581, 626.500 288.549 C 624.698 281.882, 622.560 274.040, 620.421 266.250 C 619.553 263.087, 617.947 257.125, 616.852 253 C 615.758 248.875, 614.474 244.150, 614 242.500 C 613.526 240.850, 612.176 235.900, 611 231.500 C 609.824 227.100, 608.474 222.150, 608 220.500 C 607.526 218.850, 606.176 213.900, 605 209.500 C 603.824 205.100, 602.413 199.925, 601.864 198 C 601.316 196.075, 600.477 192.925, 600 191 C 599.197 187.759, 598.536 185.364, 596.069 176.750 C 595.557 174.963, 594.176 169.900, 593 165.500 C 591.824 161.100, 590.474 156.150, 590 154.500 C 589.526 152.850, 588.242 148.125, 587.148 144 C 583.300 129.503, 581.954 124.734, 581.501 124.002 C 581.250 123.595, 577.322 122.949, 572.772 122.567 C 568.222 122.185, 562.700 121.416, 560.500 120.857 C 558.300 120.299, 554.700 119.396, 552.500 118.852 C 550.300 118.307, 541.075 115.393, 532 112.377 C 522.925 109.360, 511.450 105.760, 506.500 104.376 C 501.550 102.993, 495.700 101.330, 493.500 100.680 C 491.201 100.002, 483.333 99.516, 475 99.537 C 459.444 99.576, 456.884 100.233, 446.847 106.761 L 443.195 109.137 438.347 105.784 C 435.681 103.940, 431.925 101.844, 430 101.125 C 426.536 99.833, 405.289 98.773, 399.500 99.605 M 418.702 111.094 C 415.186 113.993, 412 119.477, 412 122.633 C 412 125.229, 416.242 133.059, 419.125 135.784 C 420.705 137.278, 425.711 140.300, 430.249 142.500 L 438.500 146.500 438.500 152.500 C 438.500 158.280, 438.408 158.494, 436 158.325 C 431.481 158.009, 423.528 160.837, 420.844 163.713 C 416.881 167.961, 416 170.340, 416 176.793 C 416 182.275, 416.297 183.056, 419.970 187.229 C 423.626 191.382, 434.384 198, 437.479 198 C 439.241 198, 440 200.284, 440 205.582 L 440 210 435.622 210 C 426.915 210, 420.547 214.856, 419.317 222.435 C 417.869 231.357, 422.337 237.926, 432.611 241.977 C 439.541 244.709, 441.193 246.430, 440.794 250.500 C 440.515 253.343, 440.292 253.483, 436.532 253.180 C 426.704 252.386, 421.627 256.281, 421.752 264.519 C 421.842 270.491, 424.021 273.217, 431.775 277.056 C 441.523 281.882, 442 282.423, 442 288.655 C 442 295.397, 443.590 295.617, 444.500 289 C 444.878 286.250, 445.483 284.007, 445.844 284.015 C 446.205 284.023, 448.462 284.712, 450.859 285.547 C 455.638 287.212, 458.479 286.801, 459.436 284.306 C 460.281 282.105, 456.790 278.590, 451.123 275.935 C 445.977 273.523, 445.038 272.504, 445.015 269.309 C 444.995 266.364, 446.082 265.876, 450.097 267.028 C 454.688 268.345, 459.140 266.743, 462.950 262.404 C 465.543 259.451, 466 258.123, 466 253.542 C 466 245.461, 463.609 243.086, 449.250 236.910 C 446.235 235.613, 446 235.168, 446 230.756 C 446 225.576, 446.009 225.569, 450.785 226.938 C 454.645 228.045, 458.993 226.842, 463.673 223.370 C 468.021 220.144, 470 215.709, 470 209.191 C 470 200.401, 467.600 198.069, 451.211 190.932 C 447.654 189.384, 446.671 187.179, 447.176 181.888 L 447.500 178.500 455 178 C 463.970 177.402, 468.089 175.403, 471.505 169.991 C 474.277 165.602, 474.824 159.039, 472.815 154.297 C 471.559 151.333, 465.140 144, 463.801 144 C 463.365 144, 459.632 142.440, 455.504 140.534 C 447.465 136.820, 446.219 134.737, 449.468 130.441 C 450.276 129.374, 450.951 127.037, 450.968 125.250 C 450.994 122.622, 450.605 122, 448.934 122 C 447.798 122, 446.038 122.444, 445.024 122.987 C 443.721 123.684, 442.366 123.553, 440.411 122.538 C 438.889 121.749, 437.274 121.331, 436.822 121.610 C 435.655 122.331, 435.800 128.758, 437 129.500 C 438.499 130.427, 438.204 132, 436.530 132 C 434.717 132, 427.768 128.181, 426.765 126.634 C 425.483 124.655, 425.981 121.582, 428 119 C 430.651 115.610, 430.555 111.502, 427.777 109.557 C 424.589 107.323, 422.937 107.603, 418.702 111.094 M 401 119.622 C 396.975 120.241, 387.899 122.194, 382.500 123.603 C 379.750 124.321, 376.375 125.192, 375 125.538 C 373.625 125.884, 371.600 126.557, 370.500 127.033 C 369.400 127.509, 366.475 128.569, 364 129.387 C 361.525 130.205, 356.125 132.040, 352 133.464 C 342.692 136.679, 339.934 137.490, 333 139.056 C 320.416 141.897, 318.510 142.634, 318.189 144.782 C 317.714 147.968, 320.821 149.094, 327.124 148.021 C 334.473 146.769, 347.333 143.324, 353.500 140.954 C 371.939 133.870, 381.130 131.241, 402.314 126.994 C 408.355 125.782, 410.137 124.034, 408.307 121.114 C 407.242 119.414, 405.142 118.986, 401 119.622 M 479.638 121.500 C 479.322 122.325, 479.318 123.666, 479.631 124.480 C 480.232 126.047, 485.886 127.985, 489.884 127.994 C 491.195 127.997, 494.120 128.486, 496.384 129.079 C 498.648 129.673, 502.300 130.634, 504.500 131.216 C 506.700 131.798, 513 133.815, 518.500 135.699 C 528.560 139.144, 547.495 145.226, 554 147.102 C 555.925 147.657, 560.200 148.198, 563.500 148.305 C 569.360 148.495, 569.507 148.436, 569.817 145.744 C 570.007 144.092, 569.607 142.842, 568.817 142.622 C 568.093 142.420, 563.225 141.255, 558 140.032 C 548.763 137.870, 538.509 134.645, 519 127.766 C 513.775 125.923, 506.800 123.841, 503.500 123.138 C 500.200 122.434, 495.873 121.441, 493.884 120.930 C 488.090 119.440, 480.309 119.752, 479.638 121.500 M 388 147.091 C 385.525 147.594, 381.025 148.490, 378 149.082 C 371.749 150.304, 371.505 150.376, 352.519 156.579 C 338.296 161.226, 335.564 161.932, 321.611 164.565 C 317.272 165.384, 313.334 166.293, 312.861 166.586 C 311.203 167.610, 311.956 171.851, 313.905 172.470 C 317.883 173.733, 336.880 169.411, 357.322 162.593 C 366.028 159.689, 370.905 158.357, 383.500 155.442 C 384.600 155.187, 389.802 154.552, 395.059 154.031 C 407.170 152.831, 408.189 152.438, 407.804 149.122 C 407.508 146.569, 407.301 146.496, 400 146.338 C 395.875 146.249, 390.475 146.588, 388 147.091 M 480.309 147.636 C 478.837 151.474, 482.785 153.724, 491.307 153.900 C 493.951 153.955, 498.001 154.413, 500.307 154.918 C 502.613 155.422, 507.200 156.388, 510.500 157.063 C 516.908 158.374, 528.204 161.580, 531.500 163.024 C 536.793 165.341, 554.752 170.227, 567.882 172.921 C 574.012 174.179, 576 173.304, 576 169.346 C 576 166.640, 576.114 166.693, 566.500 165.006 C 556.923 163.326, 545.870 160.411, 537.500 157.358 C 533.650 155.954, 529.150 154.452, 527.500 154.021 C 525.850 153.590, 522.475 152.570, 520 151.753 C 511.425 148.926, 494.204 146, 486.137 146 C 482.245 146, 480.779 146.412, 480.309 147.636 M 429.571 172.571 C 426.988 175.155, 427.655 178.640, 431.250 181.333 C 435.764 184.714, 438.611 185.456, 439.381 183.450 C 440.352 180.920, 438.926 173.630, 437.190 172.250 C 435.029 170.532, 431.460 170.683, 429.571 172.571 M 378 173.530 C 368.013 175.198, 362.881 176.391, 354.500 178.992 C 337.145 184.379, 323.482 187.752, 310.500 189.853 C 307.101 190.403, 306.453 190.903, 306.190 193.183 C 305.612 198.187, 309.641 198.342, 328.500 194.042 C 338.444 191.775, 340.605 191.187, 347 189.010 C 350.575 187.793, 355.075 186.367, 357 185.842 C 358.925 185.317, 362.075 184.452, 364 183.921 C 371.266 181.914, 378.928 180.761, 392.395 179.648 C 403.426 178.737, 406.505 178.157, 407.337 176.834 C 408.095 175.627, 408.022 174.731, 407.070 173.584 C 405.443 171.623, 389.596 171.594, 378 173.530 M 481.384 173.442 C 479.512 178.319, 482.481 179.678, 495.500 179.900 C 503.049 180.029, 515.203 181.812, 523 183.935 C 524.925 184.459, 528.075 185.308, 530 185.823 C 531.925 186.338, 536.875 187.887, 541 189.265 C 555.266 194.031, 577.539 198.775, 580.436 197.663 C 581.588 197.221, 582.032 196.131, 581.817 194.274 C 581.471 191.287, 580.710 190.930, 570.500 188.976 C 561.716 187.294, 546.454 183.402, 539 180.942 C 535.425 179.762, 530.925 178.363, 529 177.832 C 510.155 172.636, 482.666 170.101, 481.384 173.442 M 368 199.570 C 358.828 201.181, 355.185 202.060, 341.500 205.970 C 334.876 207.862, 327.190 209.765, 321.500 210.921 C 318.200 211.592, 313.873 212.559, 311.884 213.070 C 309.895 213.582, 306.913 214, 305.256 214 C 301.902 214, 299.661 216.023, 300.167 218.595 C 300.779 221.703, 303.397 222.457, 309.152 221.181 C 312.093 220.528, 317.875 219.289, 322 218.427 C 332.279 216.279, 335.327 215.535, 344 213.059 C 348.125 211.881, 354.200 210.245, 357.500 209.423 C 360.800 208.600, 365.300 207.424, 367.500 206.808 C 369.700 206.192, 378.833 205.603, 387.795 205.499 C 397.476 205.386, 404.512 204.888, 405.130 204.270 C 405.702 203.698, 406.019 202.166, 405.835 200.865 C 405.501 198.505, 405.471 198.500, 390.500 198.377 C 381.958 198.306, 372.271 198.820, 368 199.570 M 483.200 199.200 C 481.638 200.762, 481.664 203.665, 483.250 204.689 C 483.938 205.132, 491.098 205.555, 499.163 205.627 C 507.228 205.700, 516.228 206.286, 519.163 206.930 C 529.212 209.136, 533.505 210.229, 539 211.980 C 546.671 214.424, 556.019 216.896, 565 218.856 C 578.350 221.769, 580.794 222.153, 584 221.841 C 586.927 221.556, 587.550 221.070, 587.804 218.878 C 588.151 215.887, 587.089 215.257, 579.500 213.952 C 570.374 212.383, 559.566 210.005, 552.750 208.066 C 550.688 207.480, 547.313 206.525, 545.250 205.944 C 543.188 205.363, 539.925 204.433, 538 203.877 C 531.908 202.119, 526.770 201.044, 517.087 199.500 C 505.547 197.661, 484.922 197.478, 483.200 199.200 M 446.752 207.668 C 446.378 211.584, 446.663 212.832, 448.256 214.250 C 452.118 217.688, 458 215.746, 458 211.033 C 458 207.887, 454.497 204.665, 449.796 203.485 C 447.328 202.865, 447.194 203.049, 446.752 207.668 M 430.004 221.996 C 428.072 223.928, 427.998 224.368, 429.277 226.323 C 430.695 228.490, 436.367 231.860, 438.750 231.952 C 439.586 231.984, 440 230.381, 440 227.108 C 440 222.775, 439.725 222.148, 437.593 221.613 C 436.269 221.280, 434.504 220.747, 433.670 220.427 C 432.822 220.102, 431.207 220.793, 430.004 221.996 M 371 223.605 C 364.449 224.052, 356.153 225.568, 346.250 228.127 C 322.129 234.359, 318.800 235.106, 306.500 237.040 C 297.010 238.533, 294.886 239.216, 293.662 241.166 C 292.897 242.384, 292.996 243.290, 294.028 244.533 C 295.160 245.898, 296.436 246.111, 300.470 245.612 C 310.226 244.405, 326.859 241.006, 337 238.146 C 338.925 237.603, 343.425 236.432, 347 235.543 C 350.575 234.655, 355.300 233.411, 357.500 232.780 C 359.811 232.116, 370.262 231.549, 382.255 231.435 C 403.203 231.235, 406 230.762, 406 227.413 C 406 226.674, 405.136 225.608, 404.081 225.043 C 402.021 223.941, 380.061 222.986, 371 223.605 M 493.370 223.776 C 486.941 224.014, 484.885 224.470, 483.540 225.955 C 482.188 227.450, 482.068 228.259, 482.957 229.919 C 484.026 231.916, 484.608 231.979, 496.786 231.400 C 512.909 230.635, 528.699 232.332, 543.250 236.395 C 546.413 237.278, 551.587 238.722, 554.750 239.605 C 557.913 240.488, 562.300 241.574, 564.500 242.017 C 566.700 242.461, 570.975 243.342, 574 243.975 C 583.658 245.995, 593.122 246.416, 594.102 244.869 C 594.579 244.116, 594.976 243.195, 594.985 242.821 C 595.025 241.042, 591.642 239.180, 587.300 238.590 C 582.744 237.972, 579.786 237.423, 567 234.821 C 561.969 233.797, 555.266 232.140, 547.500 230 C 531.891 225.699, 523.048 224.230, 510 223.772 C 505.325 223.608, 497.842 223.610, 493.370 223.776 M 358 249.574 C 348.531 250.913, 346.316 251.363, 334 254.451 C 321.871 257.492, 320.504 257.817, 315.500 258.854 C 311.156 259.754, 304.067 260.900, 292.350 262.597 C 288.498 263.155, 286.619 265.223, 287.485 267.952 C 288.009 269.603, 288.979 270, 292.491 270 C 294.887 270, 299.019 269.562, 301.674 269.027 C 304.328 268.492, 310.325 267.316, 315 266.414 C 319.675 265.511, 325.188 264.374, 327.250 263.887 C 335.196 262.008, 338.688 261.143, 344 259.740 C 358.650 255.870, 369.961 255.362, 399.500 257.245 C 403.136 257.477, 403.527 257.265, 403.801 254.914 C 403.966 253.492, 403.516 251.873, 402.801 251.315 C 401.214 250.078, 381.760 247.953, 373.500 248.114 C 370.200 248.178, 363.225 248.835, 358 249.574 M 446.195 252.750 L 446.500 257.500 450.759 257.808 C 457.571 258.300, 457.949 253.693, 451.411 249.855 C 446.599 247.030, 445.855 247.443, 446.195 252.750 M 499.500 249.173 C 485.960 250.238, 483.757 251.042, 484.184 254.758 C 484.541 257.853, 481.864 257.661, 507 256.396 C 520.972 255.693, 530.987 256.801, 546 260.713 C 551.225 262.074, 557.075 263.551, 559 263.993 C 573.657 267.364, 579.684 268.491, 590.986 269.974 C 599.236 271.056, 601.789 270.063, 600.577 266.243 C 599.928 264.199, 598.069 263.690, 581.500 261.024 C 572.785 259.622, 563.777 257.620, 554.500 255.025 C 552.850 254.564, 549.025 253.644, 546 252.980 C 542.975 252.317, 539.560 251.418, 538.411 250.982 C 537.262 250.546, 531.187 249.885, 524.911 249.513 C 518.635 249.141, 512.825 248.718, 512 248.572 C 511.175 248.427, 505.550 248.697, 499.500 249.173 M 431.040 261.452 C 429.114 263.773, 430.254 266.361, 434.013 268.199 C 439.535 270.899, 441 270.558, 441 266.573 C 441 263.728, 440.465 262.880, 437.846 261.573 C 433.938 259.623, 432.578 259.599, 431.040 261.452 M 254.387 315.750 C 254.085 316.712, 253.424 318.534, 252.919 319.797 C 252.413 321.060, 252 323.198, 252 324.547 L 252 327 332.750 327.044 C 398.093 327.079, 414.168 327.346, 417 328.439 C 418.925 329.182, 422.975 330.791, 426 332.016 C 430.449 333.816, 433.603 334.261, 442.500 334.342 C 453.854 334.446, 456.831 333.831, 466.731 329.335 L 471.963 326.959 553.731 327.012 L 635.500 327.066 635.343 324.283 C 635.257 322.752, 634.788 319.925, 634.302 318 L 633.418 314.500 550.147 314.244 L 466.876 313.988 462.452 316.581 C 450.539 323.563, 434.481 323.555, 423.915 316.562 L 420.043 314 337.490 314 C 259.744 314, 254.905 314.102, 254.387 315.750 M 152 348 C 152 349.685, 152.668 350.001, 156.250 350.005 C 161.362 350.011, 165.252 352.898, 166.888 357.899 C 167.621 360.141, 168 373.692, 168 397.699 C 168 437.489, 167.965 437.753, 162.111 441.921 C 160.505 443.065, 158.023 444, 156.596 444 C 154.667 444, 154 444.514, 154 446 C 154 447.919, 154.667 448, 170.500 448 C 185.967 448, 187 447.883, 187 446.125 C 187 444.824, 186.041 444.058, 183.866 443.623 C 182.143 443.279, 179.287 441.463, 177.520 439.589 C 174.763 436.666, 174.214 435.210, 173.660 429.341 C 172.841 420.663, 172.797 373.691, 173.607 371.582 C 174.348 369.652, 176 369.489, 176 371.346 C 176 372.087, 176.632 373.999, 177.404 375.596 C 178.176 377.193, 179.700 380.525, 180.790 383 C 181.880 385.475, 183.775 389.750, 185 392.500 C 186.225 395.250, 188.127 399.525, 189.226 402 C 190.325 404.475, 192.299 408.876, 193.612 411.780 C 194.925 414.683, 196 417.258, 196 417.500 C 196 417.742, 197.125 420.429, 198.500 423.470 C 202.147 431.536, 205.434 438.913, 207.537 443.750 C 208.881 446.841, 209.966 448, 211.514 448 C 213.628 448, 213.819 447.677, 219.492 434.500 C 220.203 432.850, 221.958 428.899, 223.392 425.720 C 224.826 422.542, 226 419.740, 226 419.495 C 226 419.250, 227.350 416.103, 229 412.500 C 230.650 408.897, 232 405.750, 232 405.505 C 232 405.260, 233.075 402.683, 234.388 399.780 C 235.701 396.876, 237.777 392.250, 239 389.500 C 240.223 386.750, 242.226 382.250, 243.451 379.500 C 244.675 376.750, 246.310 373.038, 247.083 371.250 C 247.856 369.462, 248.828 368, 249.244 368 C 249.660 368, 250 382.795, 250 400.878 C 250 438.176, 249.736 439.830, 243.368 442.491 C 241.381 443.321, 238.911 444, 237.878 444 C 236.667 444, 236 444.710, 236 446 C 236 447.942, 236.667 448, 259 448 C 280.533 448, 282 447.884, 282 446.189 C 282 444.864, 280.716 444.049, 277.218 443.152 C 274.459 442.445, 271.894 441.060, 271.156 439.879 C 269.431 437.117, 268.344 373.896, 269.826 362.509 C 270.723 355.614, 271.246 354.215, 273.639 352.307 C 275.164 351.091, 278.003 349.962, 279.948 349.798 C 282.372 349.594, 283.588 348.950, 283.815 347.750 C 284.120 346.139, 282.799 346, 267.195 346 L 250.243 346 248.945 349.250 C 248.231 351.038, 246.377 355.324, 244.824 358.775 C 243.271 362.226, 242 365.253, 242 365.500 C 242 365.747, 240.650 368.897, 239 372.500 C 237.350 376.103, 236 379.253, 236 379.500 C 236 379.747, 234.650 382.897, 233 386.500 C 231.350 390.103, 230 393.253, 230 393.500 C 230 393.747, 228.729 396.774, 227.176 400.225 C 225.623 403.676, 223.751 408.075, 223.016 410 C 222.281 411.925, 221.302 413.928, 220.840 414.450 C 220.378 414.972, 220 416.243, 220 417.273 C 220 420.864, 216.781 418.553, 214.820 413.555 C 213.753 410.835, 211.782 406.209, 210.440 403.275 C 209.098 400.341, 208 397.740, 208 397.495 C 208 397.250, 206.650 394.103, 205 390.500 C 203.350 386.897, 202 383.747, 202 383.500 C 202 383.253, 200.650 380.103, 199 376.500 C 197.350 372.897, 196 369.747, 196 369.500 C 196 369.253, 194.650 366.103, 193 362.500 C 191.350 358.897, 190 355.731, 190 355.464 C 190 355.197, 189.050 352.958, 187.890 350.489 L 185.780 346 168.890 346 C 152.667 346, 152 346.079, 152 348 M 521.500 359.478 C 497.833 364.370, 485 380.700, 485 405.926 C 485 418.464, 488.656 427.854, 496.837 436.331 C 503.624 443.362, 510.464 446.729, 522.622 449.023 C 533.843 451.140, 543.666 449.380, 553.428 443.501 C 559.870 439.622, 561.325 439.874, 562.360 445.049 L 562.961 448.054 577.730 447.777 C 590.025 447.546, 592.500 447.250, 592.500 446.010 C 592.500 445.178, 591.294 444.295, 589.768 444.010 C 588.265 443.729, 586.082 442.678, 584.916 441.673 C 583.094 440.102, 582.894 439.194, 583.491 435.210 C 583.874 432.660, 585.202 427.857, 586.443 424.537 L 588.699 418.500 603.865 418.224 L 619.030 417.948 620.079 420.709 C 620.657 422.227, 621.731 424.827, 622.466 426.485 C 624.607 431.316, 626 436.116, 626 438.665 C 626 440.930, 623.630 442.576, 617.750 444.396 C 616.788 444.694, 616 445.646, 616 446.513 C 616 447.931, 621.673 448.074, 672.504 447.942 C 703.582 447.861, 729.190 447.501, 729.412 447.142 C 729.634 446.783, 729.970 441.586, 730.158 435.595 C 730.411 427.524, 730.176 424.588, 729.250 424.267 C 728.563 424.028, 728 424.326, 728 424.928 C 728 427.155, 723.749 434.966, 720.933 437.913 C 717.132 441.891, 714.603 442.500, 701.899 442.500 C 690.268 442.500, 687.267 441.556, 685.250 437.263 C 683.460 433.451, 683.519 370.216, 685.315 367.855 C 686.004 366.950, 688.477 365.638, 690.811 364.938 C 699.268 362.405, 695.035 361.507, 674.976 361.581 C 654.890 361.656, 650.618 362.607, 659.037 365.129 C 666.573 367.387, 666.500 366.996, 666.500 405.298 L 666.500 439.187 663.500 441.589 C 659.036 445.162, 651.343 444.682, 647.521 440.592 C 645.646 438.586, 642.335 431.602, 637.996 420.500 C 635.632 414.450, 633.315 409.073, 632.848 408.550 C 632.382 408.028, 632 407.010, 632 406.289 C 632 405.568, 631.151 403.071, 630.113 400.739 C 629.075 398.408, 626.756 392.675, 624.960 388 C 623.163 383.325, 621.313 379.073, 620.847 378.550 C 620.381 378.028, 620 377.010, 620 376.289 C 620 375.568, 619.146 373.071, 618.102 370.739 C 617.058 368.408, 615.598 365.038, 614.858 363.250 C 613.700 360.454, 613.022 360.001, 610.006 360.009 L 606.500 360.018 600.165 376.259 C 596.681 385.192, 593.418 393.512, 592.915 394.750 C 590.982 399.504, 590.159 401.617, 588.924 405 C 588.221 406.925, 586.552 410.975, 585.215 414 C 583.878 417.025, 582.090 421.075, 581.242 423 C 576.039 434.805, 573.654 439.127, 571.339 440.948 C 566.414 444.822, 566.082 444.155, 565.779 429.762 C 565.551 418.935, 565.227 416.475, 564 416.249 C 562.940 416.055, 561.824 418.073, 560.195 423.136 C 557.223 432.374, 553.113 438.261, 547.218 441.727 C 543.071 444.164, 541.531 444.489, 534.500 444.413 C 528.153 444.344, 525.674 443.860, 522.500 442.069 C 514.662 437.645, 511.126 433.045, 507.302 422.300 C 504.600 414.709, 504.922 393.666, 507.880 384.500 C 510.816 375.403, 514.416 370.256, 520.455 366.522 C 524.900 363.774, 526.121 363.500, 533.922 363.500 C 541.503 363.500, 543.050 363.823, 547.233 366.282 C 553.066 369.711, 556.995 374.506, 559.082 380.744 C 559.979 383.426, 561.289 385.500, 562.086 385.500 C 563.233 385.500, 563.464 383.348, 563.310 374.110 C 563.205 367.845, 562.718 362.318, 562.227 361.827 C 561.014 360.614, 558 361.883, 558 363.607 C 558 365.506, 556.755 365.362, 552.068 362.918 C 543.302 358.349, 532.724 357.159, 521.500 359.478 M 282.380 362.452 C 281.485 364.786, 282.877 366, 286.448 366 C 288.280 366, 290.841 366.860, 292.139 367.911 L 294.500 369.821 294.828 401.147 C 295.215 438.090, 295.008 440.292, 290.914 442.710 C 289.280 443.675, 288.074 445.148, 288.235 445.982 C 288.490 447.304, 292.977 447.500, 323.014 447.500 L 357.500 447.500 357.784 436.750 C 358.027 427.541, 357.843 426, 356.502 426 C 354.880 426, 354.612 426.489, 353.507 431.477 C 353.145 433.115, 351.111 436.107, 348.988 438.126 C 345.715 441.239, 344.017 441.985, 337.821 443.030 C 329.014 444.516, 319.923 443.216, 316.476 439.978 C 313.406 437.093, 312.211 429.614, 312.764 416.750 L 313.227 406 318.127 406 C 326.073 406, 331.039 410.051, 332.210 417.489 C 332.382 418.582, 333.305 419.628, 334.261 419.812 C 335.860 420.120, 336 418.724, 336 402.500 C 336 386.291, 335.859 384.881, 334.265 385.187 C 333.164 385.400, 332.319 386.795, 331.950 389.011 C 330.732 396.340, 327.255 399.499, 319.238 400.563 C 315.742 401.027, 314.028 400.854, 313.491 399.985 C 313.070 399.304, 312.768 391.754, 312.820 383.208 C 312.891 371.726, 313.253 367.436, 314.208 366.771 C 316.046 365.493, 335.388 366.714, 339.261 368.353 C 343.299 370.062, 345.377 372.432, 347.090 377.282 C 347.958 379.741, 348.963 380.962, 349.963 380.771 C 352.039 380.375, 352.794 363.121, 350.791 361.850 C 350.081 361.399, 334.523 361.024, 316.219 361.015 C 288.036 361.002, 282.852 361.222, 282.380 362.452 M 362.382 362.192 C 361.533 363.565, 363.460 364.658, 368.013 365.386 C 373.999 366.343, 374.115 367.154, 373.789 405.766 C 373.466 443.956, 373.710 442.712, 366.318 443.913 C 363.982 444.293, 362.500 445.084, 362.500 445.951 C 362.500 447.983, 410.086 448.505, 419.312 446.575 C 435.278 443.234, 443.252 436.395, 449.130 421 C 451.272 415.392, 450.740 395.728, 448.276 389.412 C 443.121 376.200, 433.518 367.225, 420 362.987 C 414.400 361.231, 363.410 360.528, 362.382 362.192 M 447 362.552 C 447 363.304, 448.690 364.426, 450.756 365.045 C 458.971 367.506, 458.462 365.281, 458.809 400.292 C 459.178 437.609, 458.999 439.420, 454.680 442.053 C 452.931 443.120, 450.230 443.994, 448.677 443.996 C 446.527 443.999, 445.934 444.418, 446.190 445.750 C 446.499 447.352, 448.338 447.499, 468.003 447.486 C 487.586 447.473, 489.508 447.318, 489.812 445.736 C 490.061 444.444, 489.475 444, 487.524 444 C 484.119 444, 479.533 441.599, 477.561 438.783 C 475.264 435.504, 475.216 372.564, 477.508 369.292 C 479.110 367.005, 484.351 364, 486.737 364 C 487.523 364, 487.979 363.438, 487.750 362.750 C 487.112 360.834, 447 360.639, 447 362.552 M 393.320 365.706 C 392.462 366.306, 392.067 375.941, 391.870 401.079 C 391.600 435.414, 391.612 435.647, 393.827 438.757 C 396.390 442.357, 401.675 443.623, 410.386 442.724 C 424.651 441.252, 429.979 431.808, 429.977 408 C 429.975 379.281, 421.852 366.749, 402.375 365.419 C 398.044 365.123, 393.969 365.253, 393.320 365.706 M 601.682 384.192 C 597.238 394.209, 591.036 411.248, 591.537 412.060 C 591.857 412.577, 597.491 413, 604.059 413 C 618.629 413, 618.103 414.254, 610.983 396.500 C 609.988 394.018, 609.125 391.734, 607.044 386.069 C 604.996 380.494, 603.547 379.986, 601.682 384.192 M 184 463.434 C 165.742 468.661, 152.426 481.288, 146.406 499.080 C 144.444 504.881, 144 508.212, 144 517.153 C 144 531.037, 145.031 535.942, 150.132 546.319 C 155.151 556.531, 169.769 567.426, 182.193 570.214 C 189.856 571.934, 203.086 572.296, 208.953 570.946 C 215.368 569.469, 225.682 565.075, 230.080 561.943 C 233.025 559.846, 233.162 559.837, 234.527 561.640 C 235.302 562.663, 235.951 564.014, 235.968 564.643 C 235.995 565.607, 238.131 567, 239.582 567 C 239.812 567, 240 559.125, 240 549.500 C 240 533.381, 239.859 532, 238.218 532 C 236.953 532, 236.038 533.375, 235.061 536.750 C 231.291 549.763, 223.962 559.917, 215.451 563.918 C 208.905 566.995, 196.892 566.839, 189.780 563.584 C 175.232 556.929, 168.108 541.868, 168.036 517.616 C 168.016 511.080, 168.450 503.992, 169 501.866 C 169.550 499.740, 170.472 496.087, 171.049 493.750 C 173.576 483.505, 180.826 473.746, 188.730 469.947 C 192.530 468.120, 195.228 467.649, 202 467.629 C 209.327 467.607, 211.259 467.986, 216 470.373 C 225.037 474.925, 229.982 480.736, 233.111 490.482 C 234.024 493.324, 235.325 495.500, 236.111 495.500 C 237.818 495.500, 238.467 482.171, 237.279 471.500 C 236.605 465.444, 236.232 464.500, 234.514 464.500 C 233.318 464.500, 232.380 465.296, 232.156 466.500 C 231.384 470.657, 230.065 471.098, 225.648 468.674 C 217.670 464.297, 211.030 462.709, 199.500 462.420 C 192.692 462.250, 186.785 462.636, 184 463.434 M 603.571 480.147 C 582.159 487.383, 569.669 508.673, 573.069 532.137 C 575.619 549.731, 583.943 560.330, 600.500 567.067 C 601.600 567.515, 605.763 568.430, 609.750 569.101 C 619.617 570.761, 629.009 569.103, 638.687 563.992 C 642.639 561.905, 647.814 559.895, 650.187 559.526 C 658.475 558.235, 658 558.929, 658 548.107 C 658 539.200, 658.202 538.159, 660.314 536.174 C 661.587 534.978, 663.312 534, 664.148 534 C 666.395 534, 667.131 532.863, 665.869 531.342 C 664.184 529.312, 631.733 529.412, 630.040 531.452 C 629.043 532.653, 629.475 533.171, 632.539 534.452 C 634.577 535.303, 636.477 536, 636.762 536 C 639.870 536, 641.093 548.147, 638.587 554.128 C 635.573 561.324, 630.346 564.158, 620.089 564.158 C 608.242 564.158, 602.430 560.212, 597.027 548.500 C 588.926 530.940, 591.986 501.683, 603.144 490.007 C 608.953 483.928, 618.954 481.063, 627.235 483.107 C 636.738 485.451, 642.022 490.304, 645.543 499.921 C 647.072 504.097, 648.078 505.500, 649.543 505.500 C 651.369 505.500, 651.519 504.645, 651.780 492.750 C 652.049 480.512, 651.978 480, 650.030 480 C 648.913 480, 647.986 480.337, 647.968 480.750 C 647.951 481.163, 647.293 482.350, 646.506 483.390 C 645.206 485.106, 644.866 485.143, 642.788 483.788 C 633.715 477.872, 615.346 476.167, 603.571 480.147 M 286 479.956 C 267.272 482.708, 254.414 492.753, 246.900 510.500 C 243.577 518.348, 244.698 536.798, 249.024 545.456 C 254.074 555.562, 266.084 564.936, 279.071 568.908 C 283.755 570.340, 306.118 570.317, 309.703 568.875 C 315.764 566.439, 317.710 565.415, 323.204 561.771 C 334.582 554.225, 342 539.714, 342 525 C 342 504.890, 329.561 487.894, 310 481.276 C 305.230 479.663, 292.691 478.973, 286 479.956 M 338.345 482.250 C 337.451 483.698, 338.993 484.743, 342.957 485.377 C 349.874 486.483, 350.290 488.246, 350.806 518.674 C 351.050 533.070, 350.928 548.273, 350.536 552.459 C 349.753 560.817, 348.418 562.553, 341.725 563.922 C 339.867 564.302, 338.500 565.200, 338.500 566.041 C 338.500 567.294, 343.802 567.500, 376 567.500 L 413.500 567.500 414 556.647 C 414.672 542.054, 413.326 540.075, 409.607 550.186 C 407.022 557.214, 401.570 561.660, 394.444 562.550 C 387.102 563.468, 374.855 562.551, 372.186 560.884 C 371.050 560.175, 369.627 558.671, 369.023 557.543 C 367.325 554.371, 367.101 489.799, 368.780 487.769 C 369.484 486.918, 372.072 485.716, 374.530 485.097 C 376.989 484.478, 379 483.528, 379 482.986 C 379 481.755, 380.896 481.874, 358.154 481.672 C 347.514 481.577, 338.600 481.837, 338.345 482.250 M 420.345 482.250 C 419.447 483.705, 421 484.744, 425.038 485.390 C 432.105 486.520, 432.405 488.129, 432.456 525.095 C 432.491 550.149, 432.214 557.225, 431.116 559.279 C 429.783 561.773, 426.702 563.536, 422.500 564.208 C 421.400 564.383, 420.500 565.196, 420.500 566.014 C 420.500 567.302, 425.487 567.500, 458 567.500 L 495.500 567.500 495.783 555.656 C 495.997 546.680, 495.770 543.910, 494.845 544.218 C 494.174 544.442, 492.972 546.583, 492.174 548.977 C 491.362 551.414, 488.854 555.199, 486.474 557.578 C 482.790 561.263, 481.459 561.924, 476.467 562.547 C 470.529 563.289, 457.793 562.672, 454.810 561.497 C 453.880 561.131, 452.305 559.632, 451.310 558.166 C 449.653 555.726, 449.500 552.693, 449.500 522.404 C 449.500 486.061, 449.416 486.575, 455.565 485.422 C 458.628 484.847, 462.442 482.084, 460.372 481.939 C 453.319 481.444, 420.686 481.698, 420.345 482.250 M 496 482.893 C 496 485.045, 497.862 486, 502.059 486 C 504.102 486, 505.476 486.796, 506.727 488.706 C 508.336 491.161, 508.500 494.540, 508.500 525.277 L 508.500 559.143 505.241 561.821 C 498.909 567.025, 499.054 567.048, 536.750 566.763 L 571.500 566.500 571.500 556.514 C 571.500 547.798, 571.277 546.485, 569.750 546.190 C 568.559 545.961, 568 546.486, 568 547.832 C 568 551.599, 563.829 557.727, 559.625 560.136 C 555.964 562.234, 554.243 562.500, 544.331 562.500 C 534.023 562.500, 532.971 562.321, 530.691 560.179 C 527.001 556.713, 525.870 550.997, 526.204 537.500 L 526.500 525.500 531 525.709 C 539.998 526.128, 542.922 528.033, 545.282 535.016 C 546.116 537.482, 547.406 539.500, 548.149 539.500 C 549.223 539.500, 549.556 535.856, 549.773 521.750 C 550.012 506.245, 549.850 504, 548.492 504 C 547.637 504, 546.779 504.563, 546.587 505.250 C 544.317 513.341, 543.280 515.441, 540.559 517.463 C 537.347 519.851, 529.340 521.446, 527.202 520.125 C 526.261 519.543, 526.017 515.255, 526.224 502.925 L 526.500 486.500 535.500 486.178 C 550.786 485.631, 558.334 488.595, 560.510 496 C 561.669 499.945, 563.025 501.224, 564.633 499.890 C 566.047 498.716, 566.616 485.768, 565.393 482.582 C 564.856 481.182, 560.832 481, 530.393 481 C 497.315 481, 496 481.072, 496 482.893 M 661.473 482.044 C 660.366 483.835, 662.993 485.875, 666.819 486.194 C 673.215 486.728, 673.457 488.035, 673.804 523.914 C 674.133 558.009, 673.910 559.759, 668.861 562.741 C 667.277 563.677, 666.135 564.905, 666.323 565.471 C 666.547 566.143, 678.666 566.591, 701.242 566.763 L 735.818 567.026 736.514 558.676 C 736.896 554.083, 737.044 549.465, 736.841 548.413 C 736.202 545.094, 733.576 546.287, 732.249 550.500 C 731.514 552.831, 729.303 556.034, 726.950 558.175 C 723.458 561.353, 722.021 561.946, 716.333 562.555 C 708.750 563.367, 698.855 562.551, 696.203 560.895 C 692.277 558.443, 691.451 553.609, 691.803 535.156 L 692 524.812 697.250 525.521 C 705.198 526.595, 709.167 529.457, 710.393 535 C 711.246 538.857, 712.724 540.676, 713.983 539.417 C 714.677 538.723, 714.954 532.439, 714.775 521.425 C 714.544 507.192, 714.262 504.500, 713.004 504.500 C 712.045 504.500, 711.177 506.073, 710.583 508.888 C 709.246 515.226, 704.600 519.555, 698.359 520.278 C 695.687 520.587, 693.149 520.503, 692.719 520.089 C 692.071 519.466, 691.622 502.039, 691.923 489.250 L 692 486 701.557 486 C 714.420 486, 719.303 487.331, 723.032 491.855 C 724.664 493.835, 726 496.198, 726 497.105 C 726 499.013, 728.370 501.296, 729.342 500.325 C 729.704 499.963, 730 495.467, 730 490.333 L 730 481 696.059 481 C 673.561 481, 661.901 481.352, 661.473 482.044 M 282.147 486.209 C 276.868 488.767, 270.851 496.109, 268.179 503.252 C 263.075 516.892, 263.612 536.915, 269.419 549.500 C 274.699 560.945, 282.211 566.056, 294.074 566.274 C 301.981 566.419, 306.303 564.621, 311.275 559.118 C 319.197 550.348, 322.794 534.428, 320.891 516.553 C 319.124 499.956, 314.096 490.615, 304.499 486.105 C 298.401 483.238, 288.179 483.286, 282.147 486.209 M 110 599.321 C 98.703 602.333, 89.711 609.656, 84.816 619.832 C 81.959 625.771, 81.614 627.429, 81.659 635 C 81.698 641.701, 82.198 644.558, 84.022 648.500 C 89.011 659.287, 96.788 666.241, 107.965 669.910 C 133.241 678.208, 160 660.300, 160 635.087 C 160 620.607, 148.738 605.250, 134.634 600.500 C 128.199 598.332, 115.916 597.744, 110 599.321 M 384.500 599.305 C 377.057 601.464, 370 610.990, 370 618.877 C 370 624.778, 376.675 633.272, 384 636.693 C 385.375 637.335, 389.515 639.254, 393.201 640.957 C 396.886 642.661, 401.273 645.427, 402.951 647.104 C 405.595 649.749, 406 650.869, 406 655.544 C 406 660.380, 405.637 661.296, 402.467 664.467 C 399.304 667.630, 398.373 668, 393.589 668 C 383.827 668, 377.302 663.316, 373.615 653.663 C 370.945 646.671, 369.548 648.201, 369.209 658.489 C 368.893 668.062, 369.577 669.832, 372.904 668.051 C 374.549 667.171, 375.748 667.252, 378.262 668.415 C 385.145 671.599, 390.572 672.307, 397.738 670.957 C 408.733 668.886, 413.420 665.986, 417.057 659 C 418.958 655.349, 418.713 645.021, 416.621 640.613 C 414.081 635.260, 403.096 627.996, 390 623.009 C 383.989 620.720, 381.997 618.240, 382.022 613.076 C 382.085 600.230, 397.752 597.773, 406.102 609.299 C 407.727 611.543, 409.318 614.418, 409.637 615.689 C 410.189 617.889, 412.428 618.848, 413.283 617.250 C 413.832 616.225, 412.465 601.132, 411.760 600.427 C 411.449 600.116, 410.309 600.415, 409.226 601.091 C 407.629 602.088, 406.479 602.009, 403.131 600.669 C 397.646 598.474, 389.434 597.873, 384.500 599.305 M 447.500 599.169 C 438.576 602.175, 432.156 606.771, 427.736 613.314 C 422.672 620.813, 421.790 623.863, 421.741 634.038 C 421.700 642.732, 421.976 644.163, 424.860 650.206 C 434.597 670.608, 459.236 677.352, 478.741 664.954 C 480.777 663.661, 481.126 663.735, 482.548 665.765 C 483.409 666.994, 484.538 668, 485.057 668 C 486.114 668, 486.387 645.720, 485.342 644.675 C 484.307 643.640, 482 646.043, 482 648.156 C 482 650.507, 477.917 658.677, 475.173 661.818 C 472.800 664.533, 464.280 668, 459.978 668 C 455.829 668, 448.482 664.361, 445.518 660.839 C 440.194 654.512, 438 647.034, 438 635.217 C 438 622.484, 440.273 614.394, 445.644 608.011 C 449.142 603.854, 454.015 601.997, 461.372 602.016 C 470.324 602.040, 474.597 604.750, 478.729 613.022 C 480.505 616.577, 482.418 619.639, 482.979 619.826 C 483.626 620.042, 484 616.677, 484 610.642 C 484 600.922, 482.910 598.036, 480.488 601.347 C 479.025 603.349, 478.654 603.367, 474.651 601.641 C 472.918 600.893, 470.241 599.768, 468.703 599.141 C 465.305 597.755, 451.643 597.773, 447.500 599.169 M 518 599.446 C 502.096 603.926, 489.975 618.845, 490.011 633.899 C 490.041 646.779, 499.787 661.875, 511.731 667.543 C 521.047 671.963, 529.429 672.905, 538.478 670.548 C 553.853 666.543, 565.196 654.773, 568.021 639.893 C 571.424 621.973, 557.744 603.271, 538.201 599.124 C 531.483 597.699, 523.767 597.822, 518 599.446 M 655.845 599.426 C 650.011 601.666, 647.091 603.989, 644.459 608.480 C 641.047 614.302, 641.025 622.671, 644.409 627.651 C 647.243 631.822, 654.300 636.716, 662 639.849 C 675.799 645.464, 680.783 652.717, 676.515 660.971 C 674.134 665.574, 669.891 668, 664.218 668 C 654.882 668, 648.697 663.454, 644.933 653.829 C 642.044 646.439, 640.539 648.167, 640.214 659.250 C 639.943 668.485, 640.035 669, 641.964 669 C 643.084 669, 644 668.550, 644 668 C 644 666.632, 645.614 666.745, 649.349 668.374 C 656.790 671.620, 660.955 672.188, 668.265 670.955 C 680.226 668.938, 685.431 665.690, 688.510 658.323 C 691.277 651.700, 689.750 641.841, 685.150 636.630 C 683.574 634.844, 673.509 628, 672.459 628 C 672.183 628, 668.124 626.213, 663.439 624.028 C 656.119 620.614, 654.709 619.548, 653.412 616.444 C 652.011 613.090, 652.050 612.528, 653.966 608.570 C 655.101 606.226, 657.169 603.788, 658.562 603.154 C 662.466 601.375, 668.140 601.788, 671.982 604.130 C 676.063 606.618, 677.227 608.020, 679.974 613.750 C 681.094 616.087, 682.458 618, 683.005 618 C 683.591 618, 684 614.302, 684 609 C 684 602.022, 683.690 600, 682.622 600 C 681.865 600, 680.715 600.639, 680.067 601.419 C 679.059 602.634, 678.239 602.551, 674.370 600.839 C 668.494 598.240, 660.516 597.632, 655.845 599.426 M 158 601.401 C 158 602.194, 159.621 603.185, 161.738 603.685 C 167.735 605.104, 167.971 606.288, 167.971 635 C 167.971 663.282, 167.690 664.770, 162.018 666.617 C 160.132 667.231, 158.419 668.244, 158.211 668.867 C 157.939 669.682, 162.656 670, 175 670 C 187.940 670, 192.068 669.704, 191.765 668.796 C 191.545 668.134, 189.820 667.201, 187.932 666.723 C 186.044 666.245, 183.892 665.262, 183.148 664.539 C 181.630 663.063, 180.279 644.007, 181.381 639.617 C 181.961 637.307, 182.534 637.002, 186.269 637.015 C 192.378 637.036, 195.110 638.801, 196.771 643.800 C 199.303 651.418, 200.500 648.433, 200.500 634.500 C 200.500 620.099, 199.447 617.944, 195.997 625.282 C 193.525 630.542, 190.755 632.256, 185.433 631.821 L 181.500 631.500 181.192 622 C 181.022 616.775, 181.162 610.587, 181.503 608.250 L 182.123 604 190.412 604 C 194.971 604, 200.231 604.526, 202.101 605.169 C 205.900 606.475, 209.762 610.386, 210.207 613.376 C 210.368 614.458, 211.126 615.550, 211.892 615.802 C 213.040 616.181, 213.157 614.969, 212.559 608.901 C 212.160 604.852, 211.619 601.193, 211.358 600.770 C 211.096 600.346, 198.984 600, 184.441 600 C 162.438 600, 158 600.235, 158 601.401 M 234 601.376 C 234 602.162, 235.278 603.250, 236.839 603.794 C 240.037 604.909, 242.536 609.528, 245.600 619.982 C 246.645 623.546, 250.883 636.596, 255.018 648.982 C 262.081 670.137, 262.684 671.500, 264.978 671.500 C 267.243 671.500, 267.799 670.351, 272.714 655.500 C 275.626 646.700, 278.396 638.150, 278.869 636.500 C 282.948 622.280, 283.142 621.905, 284.712 625.230 C 285.302 626.478, 288.576 636.275, 291.989 647 C 300.408 673.460, 299.771 672, 302.903 672 C 305.217 672, 305.743 671.381, 306.942 667.250 C 307.700 664.638, 309.148 659.800, 310.159 656.500 C 313.213 646.534, 313.736 644.799, 316.034 637 C 317.250 632.875, 319.042 627.025, 320.017 624 C 320.992 620.975, 322.387 616.357, 323.116 613.738 C 323.846 611.119, 325.426 607.744, 326.627 606.238 C 328.489 603.903, 329.555 603.500, 333.862 603.500 C 342.063 603.500, 341.931 602.977, 341.968 635.628 C 342.003 666.228, 342.213 665.119, 336.068 666.706 C 334.180 667.193, 332.455 668.134, 332.235 668.796 C 331.932 669.704, 336.060 670, 349 670 C 361.871 670, 366.067 669.701, 365.768 668.805 C 365.549 668.147, 364.113 667.273, 362.577 666.862 C 361.042 666.452, 358.933 665.345, 357.893 664.403 C 356.121 662.799, 356 660.885, 356 634.404 C 356 603.996, 355.747 605.418, 361.500 603.500 C 368.605 601.132, 363.974 600.495, 337.750 600.234 C 323.038 600.087, 311 600.335, 311 600.784 C 311 602.219, 313.340 604, 315.225 604 C 320.342 604, 319.364 613.913, 312.069 636 C 308.861 645.712, 307.461 648.805, 306.651 647.971 C 306.399 647.712, 302.982 637.825, 299.057 626 C 290.835 601.229, 290.303 600, 287.810 600 C 286.791 600, 285.550 601.013, 285.053 602.250 C 284.147 604.503, 279 620.979, 276.852 628.500 C 273.933 638.722, 270.405 648.368, 269.471 648.678 C 268.905 648.866, 267.825 646.877, 267.070 644.260 C 266.314 641.642, 264.028 634.325, 261.988 628 C 254.704 605.411, 254.711 605.664, 261.249 603.551 C 267.667 601.476, 264.077 600.501, 249.002 600.224 C 236.540 599.995, 234 600.190, 234 601.376 M 564 600.995 C 564 601.542, 566.062 602.959, 568.581 604.143 C 571.307 605.424, 573.534 607.275, 574.081 608.713 C 575.095 611.381, 575.138 656.721, 574.131 661.500 C 573.646 663.800, 572.507 664.948, 569.249 666.421 C 566.912 667.478, 565 668.715, 565 669.171 C 565 669.627, 570.625 670, 577.500 670 C 590.115 670, 592.876 669.104, 586.621 667.040 C 579.668 664.745, 579.538 664.269, 579.164 639.783 C 578.961 626.500, 579.211 617.389, 579.793 616.807 C 580.413 616.187, 583.922 619.715, 589.604 626.671 C 594.470 632.627, 598.697 637.725, 598.998 638 C 599.299 638.275, 603.077 642.775, 607.394 648 C 611.710 653.225, 616.209 658.625, 617.392 660 C 618.574 661.375, 620.840 664.209, 622.426 666.298 C 626.075 671.102, 628.623 672.558, 630.564 670.947 C 631.753 669.960, 632 664.618, 632 639.828 C 632 607.288, 632.364 604.879, 637.465 603.598 C 638.859 603.248, 640 602.280, 640 601.447 C 640 600.171, 638.319 599.977, 629.331 600.216 C 621.859 600.415, 618.538 600.877, 618.245 601.758 C 617.995 602.513, 619.052 603.260, 620.892 603.628 C 624.946 604.439, 625.617 605.421, 626.908 612.434 C 628.499 621.078, 628.376 650.287, 626.750 649.767 C 626.063 649.546, 620.636 643.546, 614.690 636.433 C 608.745 629.320, 603.120 622.593, 602.190 621.485 C 601.261 620.376, 598.475 617.006, 596 613.995 C 590.768 607.629, 587.044 603.281, 585.179 601.361 C 583.587 599.721, 564 599.383, 564 600.995 M 690.227 601.181 C 690.444 601.831, 692.036 602.843, 693.766 603.431 C 699.578 605.406, 699.475 604.882, 699.810 634.132 C 700.155 664.146, 699.966 665.174, 693.813 666.769 C 692.066 667.221, 690.455 668.134, 690.235 668.796 C 689.735 670.294, 722.546 670.544, 723.470 669.049 C 723.793 668.526, 722.239 667.553, 720.017 666.887 C 717.795 666.221, 715.537 665.147, 715.001 664.501 C 713.592 662.804, 713.088 609.457, 714.454 606.716 C 715.043 605.534, 716.982 604.150, 718.763 603.639 C 720.543 603.128, 722 602.101, 722 601.355 C 722 600.271, 718.783 600, 705.917 600 C 693.995 600, 689.935 600.306, 690.227 601.181 M 726 600.960 C 726 601.526, 728.062 602.959, 730.581 604.143 C 733.307 605.424, 735.534 607.275, 736.081 608.713 C 737.142 611.504, 737.229 654.530, 736.186 660.500 C 735.577 663.980, 734.935 664.750, 731.243 666.421 C 728.909 667.478, 727 668.715, 727 669.171 C 727 670.312, 750.744 670.224, 751.450 669.081 C 751.763 668.575, 750.339 667.607, 748.287 666.930 C 741.415 664.662, 741.537 665.134, 741.156 639.322 C 740.940 624.635, 741.173 616, 741.786 616 C 742.321 616, 744.486 618.138, 746.596 620.750 C 748.706 623.362, 750.679 625.725, 750.980 626 C 751.281 626.275, 753.540 628.975, 756 632 C 758.460 635.025, 760.710 637.725, 761 638 C 761.290 638.275, 763.540 640.975, 766 644 C 768.460 647.025, 770.710 649.725, 771 650 C 771.290 650.275, 773.540 652.975, 776 656 C 778.460 659.025, 780.727 661.725, 781.039 662 C 781.351 662.275, 782.889 664.209, 784.458 666.298 C 788.060 671.094, 790.619 672.561, 792.564 670.947 C 793.753 669.960, 794 664.633, 794 639.943 C 794 622.602, 794.416 609.036, 794.994 607.515 C 795.580 605.974, 797.241 604.463, 799.040 603.836 C 800.718 603.251, 801.920 602.261, 801.712 601.636 C 801.154 599.962, 780.808 600.077, 780.247 601.758 C 779.995 602.514, 781.050 603.260, 782.892 603.628 C 787.256 604.501, 787.919 605.736, 789.060 615.128 C 790.305 625.378, 789.912 649.513, 788.500 649.468 C 787.950 649.451, 778.269 638.426, 766.987 624.968 L 746.474 600.500 736.237 600.215 C 729.697 600.033, 726 600.302, 726 600.960 M 109.470 605.250 C 101.372 610.785, 98 619.720, 98 635.648 C 98 650.664, 101.370 659.214, 109.470 664.750 C 113.622 667.588, 115.043 668, 120.663 668 C 127.712 668, 131.069 666.692, 135.186 662.339 C 141.381 655.790, 144.837 640.555, 142.987 627.951 C 140.402 610.343, 133.101 602, 120.275 602 C 115.093 602, 113.545 602.466, 109.470 605.250 M 520.213 603.459 C 514.054 606.859, 509.648 613.876, 507.147 624.264 C 503.445 639.642, 508.592 658.220, 518.363 664.750 C 522.551 667.549, 524.091 668, 529.459 668 C 533.108 668, 536.992 667.352, 538.825 666.437 C 543.046 664.332, 547.446 658.801, 548.963 653.694 C 549.648 651.387, 550.611 648.466, 551.104 647.203 C 552.509 643.601, 552.153 627.686, 550.529 621.449 C 548.597 614.034, 544.565 607.814, 539.607 604.598 C 536.267 602.433, 534.508 602.016, 529.050 602.098 C 525.447 602.152, 521.471 602.764, 520.213 603.459" stroke="none" fill="#16786e" fill-rule="evenodd"/><path d="M -0 378.001 L -0 756.002 428.250 755.751 L 856.500 755.500 856.751 377.750 L 857.003 0 428.501 0 L 0 0 -0 378.001 M 0.495 378.500 C 0.495 586.400, 0.610 671.301, 0.750 567.169 C 0.890 463.036, 0.890 292.936, 0.750 189.169 C 0.610 85.401, 0.495 170.600, 0.495 378.500 M 399.500 99.605 C 391.709 100.724, 382.408 103.292, 366.500 108.716 C 359.350 111.154, 352.150 113.540, 350.500 114.017 C 348.850 114.495, 344.125 115.860, 340 117.052 C 329.197 120.172, 324.595 121.014, 314.788 121.664 C 304.913 122.318, 306.038 121.148, 302.442 134.500 C 301.554 137.800, 300.447 141.850, 299.982 143.500 C 299.518 145.150, 298.176 150.100, 297 154.500 C 295.824 158.900, 294.443 163.963, 293.931 165.750 C 293.419 167.537, 292.581 170.463, 292.069 172.250 C 291.557 174.037, 290.176 179.100, 289 183.500 C 287.824 187.900, 286.482 192.850, 286.018 194.500 C 285.553 196.150, 284.440 200.200, 283.544 203.500 C 282.648 206.800, 281.025 212.650, 279.937 216.500 C 278.849 220.350, 277.466 225.300, 276.864 227.500 C 276.261 229.700, 275.422 232.625, 275 234 C 274.578 235.375, 273.767 238.300, 273.198 240.500 C 271.176 248.329, 268.967 256.315, 266.976 263 C 266.567 264.375, 265.730 267.413, 265.116 269.750 C 264.502 272.087, 263.498 275.913, 262.884 278.250 C 262.270 280.587, 261.422 283.625, 261 285 C 257.583 296.122, 257.583 296.123, 259.065 297.061 C 264.150 300.279, 307.281 295.880, 328.500 289.979 C 335.781 287.955, 345.358 285.942, 361.417 283.061 C 373.701 280.858, 393.357 281.789, 406.500 285.197 C 418.581 288.330, 432.384 296.194, 439.295 303.883 L 443.089 308.105 450.119 301.596 C 461.998 290.598, 471.504 286.399, 492.241 282.992 C 507.127 280.546, 533.139 283.383, 556.500 290 C 574.077 294.978, 595.770 297.981, 614.250 297.992 C 629.964 298.001, 629.212 298.581, 626.500 288.549 C 624.698 281.882, 622.560 274.040, 620.421 266.250 C 619.553 263.087, 617.947 257.125, 616.852 253 C 615.758 248.875, 614.474 244.150, 614 242.500 C 613.526 240.850, 612.176 235.900, 611 231.500 C 609.824 227.100, 608.474 222.150, 608 220.500 C 607.526 218.850, 606.176 213.900, 605 209.500 C 603.824 205.100, 602.413 199.925, 601.864 198 C 601.316 196.075, 600.477 192.925, 600 191 C 599.197 187.759, 598.536 185.364, 596.069 176.750 C 595.557 174.963, 594.176 169.900, 593 165.500 C 591.824 161.100, 590.474 156.150, 590 154.500 C 589.526 152.850, 588.242 148.125, 587.148 144 C 583.300 129.503, 581.954 124.734, 581.501 124.002 C 581.250 123.595, 577.322 122.949, 572.772 122.567 C 568.222 122.185, 562.700 121.416, 560.500 120.857 C 558.300 120.299, 554.700 119.396, 552.500 118.852 C 550.300 118.307, 541.075 115.393, 532 112.377 C 522.925 109.360, 511.450 105.760, 506.500 104.376 C 501.550 102.993, 495.700 101.330, 493.500 100.680 C 491.201 100.002, 483.333 99.516, 475 99.537 C 459.444 99.576, 456.884 100.233, 446.847 106.761 L 443.195 109.137 438.347 105.784 C 435.681 103.940, 431.925 101.844, 430 101.125 C 426.536 99.833, 405.289 98.773, 399.500 99.605 M 418.702 111.094 C 415.186 113.993, 412 119.477, 412 122.633 C 412 125.229, 416.242 133.059, 419.125 135.784 C 420.705 137.278, 425.711 140.300, 430.249 142.500 L 438.500 146.500 438.500 152.500 C 438.500 158.280, 438.408 158.494, 436 158.325 C 431.481 158.009, 423.528 160.837, 420.844 163.713 C 416.881 167.961, 416 170.340, 416 176.793 C 416 182.275, 416.297 183.056, 419.970 187.229 C 423.626 191.382, 434.384 198, 437.479 198 C 439.241 198, 440 200.284, 440 205.582 L 440 210 435.622 210 C 426.915 210, 420.547 214.856, 419.317 222.435 C 417.869 231.357, 422.337 237.926, 432.611 241.977 C 439.541 244.709, 441.193 246.430, 440.794 250.500 C 440.515 253.343, 440.292 253.483, 436.532 253.180 C 426.704 252.386, 421.627 256.281, 421.752 264.519 C 421.842 270.491, 424.021 273.217, 431.775 277.056 C 441.523 281.882, 442 282.423, 442 288.655 C 442 295.397, 443.590 295.617, 444.500 289 C 444.878 286.250, 445.483 284.007, 445.844 284.015 C 446.205 284.023, 448.462 284.712, 450.859 285.547 C 455.638 287.212, 458.479 286.801, 459.436 284.306 C 460.281 282.105, 456.790 278.590, 451.123 275.935 C 445.977 273.523, 445.038 272.504, 445.015 269.309 C 444.995 266.364, 446.082 265.876, 450.097 267.028 C 454.688 268.345, 459.140 266.743, 462.950 262.404 C 465.543 259.451, 466 258.123, 466 253.542 C 466 245.461, 463.609 243.086, 449.250 236.910 C 446.235 235.613, 446 235.168, 446 230.756 C 446 225.576, 446.009 225.569, 450.785 226.938 C 454.645 228.045, 458.993 226.842, 463.673 223.370 C 468.021 220.144, 470 215.709, 470 209.191 C 470 200.401, 467.600 198.069, 451.211 190.932 C 447.654 189.384, 446.671 187.179, 447.176 181.888 L 447.500 178.500 455 178 C 463.970 177.402, 468.089 175.403, 471.505 169.991 C 474.277 165.602, 474.824 159.039, 472.815 154.297 C 471.559 151.333, 465.140 144, 463.801 144 C 463.365 144, 459.632 142.440, 455.504 140.534 C 447.465 136.820, 446.219 134.737, 449.468 130.441 C 450.276 129.374, 450.951 127.037, 450.968 125.250 C 450.994 122.622, 450.605 122, 448.934 122 C 447.798 122, 446.038 122.444, 445.024 122.987 C 443.721 123.684, 442.366 123.553, 440.411 122.538 C 438.889 121.749, 437.274 121.331, 436.822 121.610 C 435.655 122.331, 435.800 128.758, 437 129.500 C 438.499 130.427, 438.204 132, 436.530 132 C 434.717 132, 427.768 128.181, 426.765 126.634 C 425.483 124.655, 425.981 121.582, 428 119 C 430.651 115.610, 430.555 111.502, 427.777 109.557 C 424.589 107.323, 422.937 107.603, 418.702 111.094 M 401 119.622 C 396.975 120.241, 387.899 122.194, 382.500 123.603 C 379.750 124.321, 376.375 125.192, 375 125.538 C 373.625 125.884, 371.600 126.557, 370.500 127.033 C 369.400 127.509, 366.475 128.569, 364 129.387 C 361.525 130.205, 356.125 132.040, 352 133.464 C 342.692 136.679, 339.934 137.490, 333 139.056 C 320.416 141.897, 318.510 142.634, 318.189 144.782 C 317.714 147.968, 320.821 149.094, 327.124 148.021 C 334.473 146.769, 347.333 143.324, 353.500 140.954 C 371.939 133.870, 381.130 131.241, 402.314 126.994 C 408.355 125.782, 410.137 124.034, 408.307 121.114 C 407.242 119.414, 405.142 118.986, 401 119.622 M 479.638 121.500 C 479.322 122.325, 479.318 123.666, 479.631 124.480 C 480.232 126.047, 485.886 127.985, 489.884 127.994 C 491.195 127.997, 494.120 128.486, 496.384 129.079 C 498.648 129.673, 502.300 130.634, 504.500 131.216 C 506.700 131.798, 513 133.815, 518.500 135.699 C 528.560 139.144, 547.495 145.226, 554 147.102 C 555.925 147.657, 560.200 148.198, 563.500 148.305 C 569.360 148.495, 569.507 148.436, 569.817 145.744 C 570.007 144.092, 569.607 142.842, 568.817 142.622 C 568.093 142.420, 563.225 141.255, 558 140.032 C 548.763 137.870, 538.509 134.645, 519 127.766 C 513.775 125.923, 506.800 123.841, 503.500 123.138 C 500.200 122.434, 495.873 121.441, 493.884 120.930 C 488.090 119.440, 480.309 119.752, 479.638 121.500 M 388 147.091 C 385.525 147.594, 381.025 148.490, 378 149.082 C 371.749 150.304, 371.505 150.376, 352.519 156.579 C 338.296 161.226, 335.564 161.932, 321.611 164.565 C 317.272 165.384, 313.334 166.293, 312.861 166.586 C 311.203 167.610, 311.956 171.851, 313.905 172.470 C 317.883 173.733, 336.880 169.411, 357.322 162.593 C 366.028 159.689, 370.905 158.357, 383.500 155.442 C 384.600 155.187, 389.802 154.552, 395.059 154.031 C 407.170 152.831, 408.189 152.438, 407.804 149.122 C 407.508 146.569, 407.301 146.496, 400 146.338 C 395.875 146.249, 390.475 146.588, 388 147.091 M 480.309 147.636 C 478.837 151.474, 482.785 153.724, 491.307 153.900 C 493.951 153.955, 498.001 154.413, 500.307 154.918 C 502.613 155.422, 507.200 156.388, 510.500 157.063 C 516.908 158.374, 528.204 161.580, 531.500 163.024 C 536.793 165.341, 554.752 170.227, 567.882 172.921 C 574.012 174.179, 576 173.304, 576 169.346 C 576 166.640, 576.114 166.693, 566.500 165.006 C 556.923 163.326, 545.870 160.411, 537.500 157.358 C 533.650 155.954, 529.150 154.452, 527.500 154.021 C 525.850 153.590, 522.475 152.570, 520 151.753 C 511.425 148.926, 494.204 146, 486.137 146 C 482.245 146, 480.779 146.412, 480.309 147.636 M 429.571 172.571 C 426.988 175.155, 427.655 178.640, 431.250 181.333 C 435.764 184.714, 438.611 185.456, 439.381 183.450 C 440.352 180.920, 438.926 173.630, 437.190 172.250 C 435.029 170.532, 431.460 170.683, 429.571 172.571 M 378 173.530 C 368.013 175.198, 362.881 176.391, 354.500 178.992 C 337.145 184.379, 323.482 187.752, 310.500 189.853 C 307.101 190.403, 306.453 190.903, 306.190 193.183 C 305.612 198.187, 309.641 198.342, 328.500 194.042 C 338.444 191.775, 340.605 191.187, 347 189.010 C 350.575 187.793, 355.075 186.367, 357 185.842 C 358.925 185.317, 362.075 184.452, 364 183.921 C 371.266 181.914, 378.928 180.761, 392.395 179.648 C 403.426 178.737, 406.505 178.157, 407.337 176.834 C 408.095 175.627, 408.022 174.731, 407.070 173.584 C 405.443 171.623, 389.596 171.594, 378 173.530 M 481.384 173.442 C 479.512 178.319, 482.481 179.678, 495.500 179.900 C 503.049 180.029, 515.203 181.812, 523 183.935 C 524.925 184.459, 528.075 185.308, 530 185.823 C 531.925 186.338, 536.875 187.887, 541 189.265 C 555.266 194.031, 577.539 198.775, 580.436 197.663 C 581.588 197.221, 582.032 196.131, 581.817 194.274 C 581.471 191.287, 580.710 190.930, 570.500 188.976 C 561.716 187.294, 546.454 183.402, 539 180.942 C 535.425 179.762, 530.925 178.363, 529 177.832 C 510.155 172.636, 482.666 170.101, 481.384 173.442 M 368 199.570 C 358.828 201.181, 355.185 202.060, 341.500 205.970 C 334.876 207.862, 327.190 209.765, 321.500 210.921 C 318.200 211.592, 313.873 212.559, 311.884 213.070 C 309.895 213.582, 306.913 214, 305.256 214 C 301.902 214, 299.661 216.023, 300.167 218.595 C 300.779 221.703, 303.397 222.457, 309.152 221.181 C 312.093 220.528, 317.875 219.289, 322 218.427 C 332.279 216.279, 335.327 215.535, 344 213.059 C 348.125 211.881, 354.200 210.245, 357.500 209.423 C 360.800 208.600, 365.300 207.424, 367.500 206.808 C 369.700 206.192, 378.833 205.603, 387.795 205.499 C 397.476 205.386, 404.512 204.888, 405.130 204.270 C 405.702 203.698, 406.019 202.166, 405.835 200.865 C 405.501 198.505, 405.471 198.500, 390.500 198.377 C 381.958 198.306, 372.271 198.820, 368 199.570 M 483.200 199.200 C 481.638 200.762, 481.664 203.665, 483.250 204.689 C 483.938 205.132, 491.098 205.555, 499.163 205.627 C 507.228 205.700, 516.228 206.286, 519.163 206.930 C 529.212 209.136, 533.505 210.229, 539 211.980 C 546.671 214.424, 556.019 216.896, 565 218.856 C 578.350 221.769, 580.794 222.153, 584 221.841 C 586.927 221.556, 587.550 221.070, 587.804 218.878 C 588.151 215.887, 587.089 215.257, 579.500 213.952 C 570.374 212.383, 559.566 210.005, 552.750 208.066 C 550.688 207.480, 547.313 206.525, 545.250 205.944 C 543.188 205.363, 539.925 204.433, 538 203.877 C 531.908 202.119, 526.770 201.044, 517.087 199.500 C 505.547 197.661, 484.922 197.478, 483.200 199.200 M 446.752 207.668 C 446.378 211.584, 446.663 212.832, 448.256 214.250 C 452.118 217.688, 458 215.746, 458 211.033 C 458 207.887, 454.497 204.665, 449.796 203.485 C 447.328 202.865, 447.194 203.049, 446.752 207.668 M 430.004 221.996 C 428.072 223.928, 427.998 224.368, 429.277 226.323 C 430.695 228.490, 436.367 231.860, 438.750 231.952 C 439.586 231.984, 440 230.381, 440 227.108 C 440 222.775, 439.725 222.148, 437.593 221.613 C 436.269 221.280, 434.504 220.747, 433.670 220.427 C 432.822 220.102, 431.207 220.793, 430.004 221.996 M 371 223.605 C 364.449 224.052, 356.153 225.568, 346.250 228.127 C 322.129 234.359, 318.800 235.106, 306.500 237.040 C 297.010 238.533, 294.886 239.216, 293.662 241.166 C 292.897 242.384, 292.996 243.290, 294.028 244.533 C 295.160 245.898, 296.436 246.111, 300.470 245.612 C 310.226 244.405, 326.859 241.006, 337 238.146 C 338.925 237.603, 343.425 236.432, 347 235.543 C 350.575 234.655, 355.300 233.411, 357.500 232.780 C 359.811 232.116, 370.262 231.549, 382.255 231.435 C 403.203 231.235, 406 230.762, 406 227.413 C 406 226.674, 405.136 225.608, 404.081 225.043 C 402.021 223.941, 380.061 222.986, 371 223.605 M 493.370 223.776 C 486.941 224.014, 484.885 224.470, 483.540 225.955 C 482.188 227.450, 482.068 228.259, 482.957 229.919 C 484.026 231.916, 484.608 231.979, 496.786 231.400 C 512.909 230.635, 528.699 232.332, 543.250 236.395 C 546.413 237.278, 551.587 238.722, 554.750 239.605 C 557.913 240.488, 562.300 241.574, 564.500 242.017 C 566.700 242.461, 570.975 243.342, 574 243.975 C 583.658 245.995, 593.122 246.416, 594.102 244.869 C 594.579 244.116, 594.976 243.195, 594.985 242.821 C 595.025 241.042, 591.642 239.180, 587.300 238.590 C 582.744 237.972, 579.786 237.423, 567 234.821 C 561.969 233.797, 555.266 232.140, 547.500 230 C 531.891 225.699, 523.048 224.230, 510 223.772 C 505.325 223.608, 497.842 223.610, 493.370 223.776 M 358 249.574 C 348.531 250.913, 346.316 251.363, 334 254.451 C 321.871 257.492, 320.504 257.817, 315.500 258.854 C 311.156 259.754, 304.067 260.900, 292.350 262.597 C 288.498 263.155, 286.619 265.223, 287.485 267.952 C 288.009 269.603, 288.979 270, 292.491 270 C 294.887 270, 299.019 269.562, 301.674 269.027 C 304.328 268.492, 310.325 267.316, 315 266.414 C 319.675 265.511, 325.188 264.374, 327.250 263.887 C 335.196 262.008, 338.688 261.143, 344 259.740 C 358.650 255.870, 369.961 255.362, 399.500 257.245 C 403.136 257.477, 403.527 257.265, 403.801 254.914 C 403.966 253.492, 403.516 251.873, 402.801 251.315 C 401.214 250.078, 381.760 247.953, 373.500 248.114 C 370.200 248.178, 363.225 248.835, 358 249.574 M 446.195 252.750 L 446.500 257.500 450.759 257.808 C 457.571 258.300, 457.949 253.693, 451.411 249.855 C 446.599 247.030, 445.855 247.443, 446.195 252.750 M 499.500 249.173 C 485.960 250.238, 483.757 251.042, 484.184 254.758 C 484.541 257.853, 481.864 257.661, 507 256.396 C 520.972 255.693, 530.987 256.801, 546 260.713 C 551.225 262.074, 557.075 263.551, 559 263.993 C 573.657 267.364, 579.684 268.491, 590.986 269.974 C 599.236 271.056, 601.789 270.063, 600.577 266.243 C 599.928 264.199, 598.069 263.690, 581.500 261.024 C 572.785 259.622, 563.777 257.620, 554.500 255.025 C 552.850 254.564, 549.025 253.644, 546 252.980 C 542.975 252.317, 539.560 251.418, 538.411 250.982 C 537.262 250.546, 531.187 249.885, 524.911 249.513 C 518.635 249.141, 512.825 248.718, 512 248.572 C 511.175 248.427, 505.550 248.697, 499.500 249.173 M 431.040 261.452 C 429.114 263.773, 430.254 266.361, 434.013 268.199 C 439.535 270.899, 441 270.558, 441 266.573 C 441 263.728, 440.465 262.880, 437.846 261.573 C 433.938 259.623, 432.578 259.599, 431.040 261.452 M 254.387 315.750 C 254.085 316.712, 253.424 318.534, 252.919 319.797 C 252.413 321.060, 252 323.198, 252 324.547 L 252 327 332.750 327.044 C 398.093 327.079, 414.168 327.346, 417 328.439 C 418.925 329.182, 422.975 330.791, 426 332.016 C 430.449 333.816, 433.603 334.261, 442.500 334.342 C 453.854 334.446, 456.831 333.831, 466.731 329.335 L 471.963 326.959 553.731 327.012 L 635.500 327.066 635.343 324.283 C 635.257 322.752, 634.788 319.925, 634.302 318 L 633.418 314.500 550.147 314.244 L 466.876 313.988 462.452 316.581 C 450.539 323.563, 434.481 323.555, 423.915 316.562 L 420.043 314 337.490 314 C 259.744 314, 254.905 314.102, 254.387 315.750 M 152 348 C 152 349.685, 152.668 350.001, 156.250 350.005 C 161.362 350.011, 165.252 352.898, 166.888 357.899 C 167.621 360.141, 168 373.692, 168 397.699 C 168 437.489, 167.965 437.753, 162.111 441.921 C 160.505 443.065, 158.023 444, 156.596 444 C 154.667 444, 154 444.514, 154 446 C 154 447.919, 154.667 448, 170.500 448 C 185.967 448, 187 447.883, 187 446.125 C 187 444.824, 186.041 444.058, 183.866 443.623 C 182.143 443.279, 179.287 441.463, 177.520 439.589 C 174.763 436.666, 174.214 435.210, 173.660 429.341 C 172.841 420.663, 172.797 373.691, 173.607 371.582 C 174.348 369.652, 176 369.489, 176 371.346 C 176 372.087, 176.632 373.999, 177.404 375.596 C 178.176 377.193, 179.700 380.525, 180.790 383 C 181.880 385.475, 183.775 389.750, 185 392.500 C 186.225 395.250, 188.127 399.525, 189.226 402 C 190.325 404.475, 192.299 408.876, 193.612 411.780 C 194.925 414.683, 196 417.258, 196 417.500 C 196 417.742, 197.125 420.429, 198.500 423.470 C 202.147 431.536, 205.434 438.913, 207.537 443.750 C 208.881 446.841, 209.966 448, 211.514 448 C 213.628 448, 213.819 447.677, 219.492 434.500 C 220.203 432.850, 221.958 428.899, 223.392 425.720 C 224.826 422.542, 226 419.740, 226 419.495 C 226 419.250, 227.350 416.103, 229 412.500 C 230.650 408.897, 232 405.750, 232 405.505 C 232 405.260, 233.075 402.683, 234.388 399.780 C 235.701 396.876, 237.777 392.250, 239 389.500 C 240.223 386.750, 242.226 382.250, 243.451 379.500 C 244.675 376.750, 246.310 373.038, 247.083 371.250 C 247.856 369.462, 248.828 368, 249.244 368 C 249.660 368, 250 382.795, 250 400.878 C 250 438.176, 249.736 439.830, 243.368 442.491 C 241.381 443.321, 238.911 444, 237.878 444 C 236.667 444, 236 444.710, 236 446 C 236 447.942, 236.667 448, 259 448 C 280.533 448, 282 447.884, 282 446.189 C 282 444.864, 280.716 444.049, 277.218 443.152 C 274.459 442.445, 271.894 441.060, 271.156 439.879 C 269.431 437.117, 268.344 373.896, 269.826 362.509 C 270.723 355.614, 271.246 354.215, 273.639 352.307 C 275.164 351.091, 278.003 349.962, 279.948 349.798 C 282.372 349.594, 283.588 348.950, 283.815 347.750 C 284.120 346.139, 282.799 346, 267.195 346 L 250.243 346 248.945 349.250 C 248.231 351.038, 246.377 355.324, 244.824 358.775 C 243.271 362.226, 242 365.253, 242 365.500 C 242 365.747, 240.650 368.897, 239 372.500 C 237.350 376.103, 236 379.253, 236 379.500 C 236 379.747, 234.650 382.897, 233 386.500 C 231.350 390.103, 230 393.253, 230 393.500 C 230 393.747, 228.729 396.774, 227.176 400.225 C 225.623 403.676, 223.751 408.075, 223.016 410 C 222.281 411.925, 221.302 413.928, 220.840 414.450 C 220.378 414.972, 220 416.243, 220 417.273 C 220 420.864, 216.781 418.553, 214.820 413.555 C 213.753 410.835, 211.782 406.209, 210.440 403.275 C 209.098 400.341, 208 397.740, 208 397.495 C 208 397.250, 206.650 394.103, 205 390.500 C 203.350 386.897, 202 383.747, 202 383.500 C 202 383.253, 200.650 380.103, 199 376.500 C 197.350 372.897, 196 369.747, 196 369.500 C 196 369.253, 194.650 366.103, 193 362.500 C 191.350 358.897, 190 355.731, 190 355.464 C 190 355.197, 189.050 352.958, 187.890 350.489 L 185.780 346 168.890 346 C 152.667 346, 152 346.079, 152 348 M 521.500 359.478 C 497.833 364.370, 485 380.700, 485 405.926 C 485 418.464, 488.656 427.854, 496.837 436.331 C 503.624 443.362, 510.464 446.729, 522.622 449.023 C 533.843 451.140, 543.666 449.380, 553.428 443.501 C 559.870 439.622, 561.325 439.874, 562.360 445.049 L 562.961 448.054 577.730 447.777 C 590.025 447.546, 592.500 447.250, 592.500 446.010 C 592.500 445.178, 591.294 444.295, 589.768 444.010 C 588.265 443.729, 586.082 442.678, 584.916 441.673 C 583.094 440.102, 582.894 439.194, 583.491 435.210 C 583.874 432.660, 585.202 427.857, 586.443 424.537 L 588.699 418.500 603.865 418.224 L 619.030 417.948 620.079 420.709 C 620.657 422.227, 621.731 424.827, 622.466 426.485 C 624.607 431.316, 626 436.116, 626 438.665 C 626 440.930, 623.630 442.576, 617.750 444.396 C 616.788 444.694, 616 445.646, 616 446.513 C 616 447.931, 621.673 448.074, 672.504 447.942 C 703.582 447.861, 729.190 447.501, 729.412 447.142 C 729.634 446.783, 729.970 441.586, 730.158 435.595 C 730.411 427.524, 730.176 424.588, 729.250 424.267 C 728.563 424.028, 728 424.326, 728 424.928 C 728 427.155, 723.749 434.966, 720.933 437.913 C 717.132 441.891, 714.603 442.500, 701.899 442.500 C 690.268 442.500, 687.267 441.556, 685.250 437.263 C 683.460 433.451, 683.519 370.216, 685.315 367.855 C 686.004 366.950, 688.477 365.638, 690.811 364.938 C 699.268 362.405, 695.035 361.507, 674.976 361.581 C 654.890 361.656, 650.618 362.607, 659.037 365.129 C 666.573 367.387, 666.500 366.996, 666.500 405.298 L 666.500 439.187 663.500 441.589 C 659.036 445.162, 651.343 444.682, 647.521 440.592 C 645.646 438.586, 642.335 431.602, 637.996 420.500 C 635.632 414.450, 633.315 409.073, 632.848 408.550 C 632.382 408.028, 632 407.010, 632 406.289 C 632 405.568, 631.151 403.071, 630.113 400.739 C 629.075 398.408, 626.756 392.675, 624.960 388 C 623.163 383.325, 621.313 379.073, 620.847 378.550 C 620.381 378.028, 620 377.010, 620 376.289 C 620 375.568, 619.146 373.071, 618.102 370.739 C 617.058 368.408, 615.598 365.038, 614.858 363.250 C 613.700 360.454, 613.022 360.001, 610.006 360.009 L 606.500 360.018 600.165 376.259 C 596.681 385.192, 593.418 393.512, 592.915 394.750 C 590.982 399.504, 590.159 401.617, 588.924 405 C 588.221 406.925, 586.552 410.975, 585.215 414 C 583.878 417.025, 582.090 421.075, 581.242 423 C 576.039 434.805, 573.654 439.127, 571.339 440.948 C 566.414 444.822, 566.082 444.155, 565.779 429.762 C 565.551 418.935, 565.227 416.475, 564 416.249 C 562.940 416.055, 561.824 418.073, 560.195 423.136 C 557.223 432.374, 553.113 438.261, 547.218 441.727 C 543.071 444.164, 541.531 444.489, 534.500 444.413 C 528.153 444.344, 525.674 443.860, 522.500 442.069 C 514.662 437.645, 511.126 433.045, 507.302 422.300 C 504.600 414.709, 504.922 393.666, 507.880 384.500 C 510.816 375.403, 514.416 370.256, 520.455 366.522 C 524.900 363.774, 526.121 363.500, 533.922 363.500 C 541.503 363.500, 543.050 363.823, 547.233 366.282 C 553.066 369.711, 556.995 374.506, 559.082 380.744 C 559.979 383.426, 561.289 385.500, 562.086 385.500 C 563.233 385.500, 563.464 383.348, 563.310 374.110 C 563.205 367.845, 562.718 362.318, 562.227 361.827 C 561.014 360.614, 558 361.883, 558 363.607 C 558 365.506, 556.755 365.362, 552.068 362.918 C 543.302 358.349, 532.724 357.159, 521.500 359.478 M 282.380 362.452 C 281.485 364.786, 282.877 366, 286.448 366 C 288.280 366, 290.841 366.860, 292.139 367.911 L 294.500 369.821 294.828 401.147 C 295.215 438.090, 295.008 440.292, 290.914 442.710 C 289.280 443.675, 288.074 445.148, 288.235 445.982 C 288.490 447.304, 292.977 447.500, 323.014 447.500 L 357.500 447.500 357.784 436.750 C 358.027 427.541, 357.843 426, 356.502 426 C 354.880 426, 354.612 426.489, 353.507 431.477 C 353.145 433.115, 351.111 436.107, 348.988 438.126 C 345.715 441.239, 344.017 441.985, 337.821 443.030 C 329.014 444.516, 319.923 443.216, 316.476 439.978 C 313.406 437.093, 312.211 429.614, 312.764 416.750 L 313.227 406 318.127 406 C 326.073 406, 331.039 410.051, 332.210 417.489 C 332.382 418.582, 333.305 419.628, 334.261 419.812 C 335.860 420.120, 336 418.724, 336 402.500 C 336 386.291, 335.859 384.881, 334.265 385.187 C 333.164 385.400, 332.319 386.795, 331.950 389.011 C 330.732 396.340, 327.255 399.499, 319.238 400.563 C 315.742 401.027, 314.028 400.854, 313.491 399.985 C 313.070 399.304, 312.768 391.754, 312.820 383.208 C 312.891 371.726, 313.253 367.436, 314.208 366.771 C 316.046 365.493, 335.388 366.714, 339.261 368.353 C 343.299 370.062, 345.377 372.432, 347.090 377.282 C 347.958 379.741, 348.963 380.962, 349.963 380.771 C 352.039 380.375, 352.794 363.121, 350.791 361.850 C 350.081 361.399, 334.523 361.024, 316.219 361.015 C 288.036 361.002, 282.852 361.222, 282.380 362.452 M 362.382 362.192 C 361.533 363.565, 363.460 364.658, 368.013 365.386 C 373.999 366.343, 374.115 367.154, 373.789 405.766 C 373.466 443.956, 373.710 442.712, 366.318 443.913 C 363.982 444.293, 362.500 445.084, 362.500 445.951 C 362.500 447.983, 410.086 448.505, 419.312 446.575 C 435.278 443.234, 443.252 436.395, 449.130 421 C 451.272 415.392, 450.740 395.728, 448.276 389.412 C 443.121 376.200, 433.518 367.225, 420 362.987 C 414.400 361.231, 363.410 360.528, 362.382 362.192 M 447 362.552 C 447 363.304, 448.690 364.426, 450.756 365.045 C 458.971 367.506, 458.462 365.281, 458.809 400.292 C 459.178 437.609, 458.999 439.420, 454.680 442.053 C 452.931 443.120, 450.230 443.994, 448.677 443.996 C 446.527 443.999, 445.934 444.418, 446.190 445.750 C 446.499 447.352, 448.338 447.499, 468.003 447.486 C 487.586 447.473, 489.508 447.318, 489.812 445.736 C 490.061 444.444, 489.475 444, 487.524 444 C 484.119 444, 479.533 441.599, 477.561 438.783 C 475.264 435.504, 475.216 372.564, 477.508 369.292 C 479.110 367.005, 484.351 364, 486.737 364 C 487.523 364, 487.979 363.438, 487.750 362.750 C 487.112 360.834, 447 360.639, 447 362.552 M 393.320 365.706 C 392.462 366.306, 392.067 375.941, 391.870 401.079 C 391.600 435.414, 391.612 435.647, 393.827 438.757 C 396.390 442.357, 401.675 443.623, 410.386 442.724 C 424.651 441.252, 429.979 431.808, 429.977 408 C 429.975 379.281, 421.852 366.749, 402.375 365.419 C 398.044 365.123, 393.969 365.253, 393.320 365.706 M 601.682 384.192 C 597.238 394.209, 591.036 411.248, 591.537 412.060 C 591.857 412.577, 597.491 413, 604.059 413 C 618.629 413, 618.103 414.254, 610.983 396.500 C 609.988 394.018, 609.125 391.734, 607.044 386.069 C 604.996 380.494, 603.547 379.986, 601.682 384.192 M 184 463.434 C 165.742 468.661, 152.426 481.288, 146.406 499.080 C 144.444 504.881, 144 508.212, 144 517.153 C 144 531.037, 145.031 535.942, 150.132 546.319 C 155.151 556.531, 169.769 567.426, 182.193 570.214 C 189.856 571.934, 203.086 572.296, 208.953 570.946 C 215.368 569.469, 225.682 565.075, 230.080 561.943 C 233.025 559.846, 233.162 559.837, 234.527 561.640 C 235.302 562.663, 235.951 564.014, 235.968 564.643 C 235.995 565.607, 238.131 567, 239.582 567 C 239.812 567, 240 559.125, 240 549.500 C 240 533.381, 239.859 532, 238.218 532 C 236.953 532, 236.038 533.375, 235.061 536.750 C 231.291 549.763, 223.962 559.917, 215.451 563.918 C 208.905 566.995, 196.892 566.839, 189.780 563.584 C 175.232 556.929, 168.108 541.868, 168.036 517.616 C 168.016 511.080, 168.450 503.992, 169 501.866 C 169.550 499.740, 170.472 496.087, 171.049 493.750 C 173.576 483.505, 180.826 473.746, 188.730 469.947 C 192.530 468.120, 195.228 467.649, 202 467.629 C 209.327 467.607, 211.259 467.986, 216 470.373 C 225.037 474.925, 229.982 480.736, 233.111 490.482 C 234.024 493.324, 235.325 495.500, 236.111 495.500 C 237.818 495.500, 238.467 482.171, 237.279 471.500 C 236.605 465.444, 236.232 464.500, 234.514 464.500 C 233.318 464.500, 232.380 465.296, 232.156 466.500 C 231.384 470.657, 230.065 471.098, 225.648 468.674 C 217.670 464.297, 211.030 462.709, 199.500 462.420 C 192.692 462.250, 186.785 462.636, 184 463.434 M 603.571 480.147 C 582.159 487.383, 569.669 508.673, 573.069 532.137 C 575.619 549.731, 583.943 560.330, 600.500 567.067 C 601.600 567.515, 605.763 568.430, 609.750 569.101 C 619.617 570.761, 629.009 569.103, 638.687 563.992 C 642.639 561.905, 647.814 559.895, 650.187 559.526 C 658.475 558.235, 658 558.929, 658 548.107 C 658 539.200, 658.202 538.159, 660.314 536.174 C 661.587 534.978, 663.312 534, 664.148 534 C 666.395 534, 667.131 532.863, 665.869 531.342 C 664.184 529.312, 631.733 529.412, 630.040 531.452 C 629.043 532.653, 629.475 533.171, 632.539 534.452 C 634.577 535.303, 636.477 536, 636.762 536 C 639.870 536, 641.093 548.147, 638.587 554.128 C 635.573 561.324, 630.346 564.158, 620.089 564.158 C 608.242 564.158, 602.430 560.212, 597.027 548.500 C 588.926 530.940, 591.986 501.683, 603.144 490.007 C 608.953 483.928, 618.954 481.063, 627.235 483.107 C 636.738 485.451, 642.022 490.304, 645.543 499.921 C 647.072 504.097, 648.078 505.500, 649.543 505.500 C 651.369 505.500, 651.519 504.645, 651.780 492.750 C 652.049 480.512, 651.978 480, 650.030 480 C 648.913 480, 647.986 480.337, 647.968 480.750 C 647.951 481.163, 647.293 482.350, 646.506 483.390 C 645.206 485.106, 644.866 485.143, 642.788 483.788 C 633.715 477.872, 615.346 476.167, 603.571 480.147 M 286 479.956 C 267.272 482.708, 254.414 492.753, 246.900 510.500 C 243.577 518.348, 244.698 536.798, 249.024 545.456 C 254.074 555.562, 266.084 564.936, 279.071 568.908 C 283.755 570.340, 306.118 570.317, 309.703 568.875 C 315.764 566.439, 317.710 565.415, 323.204 561.771 C 334.582 554.225, 342 539.714, 342 525 C 342 504.890, 329.561 487.894, 310 481.276 C 305.230 479.663, 292.691 478.973, 286 479.956 M 338.345 482.250 C 337.451 483.698, 338.993 484.743, 342.957 485.377 C 349.874 486.483, 350.290 488.246, 350.806 518.674 C 351.050 533.070, 350.928 548.273, 350.536 552.459 C 349.753 560.817, 348.418 562.553, 341.725 563.922 C 339.867 564.302, 338.500 565.200, 338.500 566.041 C 338.500 567.294, 343.802 567.500, 376 567.500 L 413.500 567.500 414 556.647 C 414.672 542.054, 413.326 540.075, 409.607 550.186 C 407.022 557.214, 401.570 561.660, 394.444 562.550 C 387.102 563.468, 374.855 562.551, 372.186 560.884 C 371.050 560.175, 369.627 558.671, 369.023 557.543 C 367.325 554.371, 367.101 489.799, 368.780 487.769 C 369.484 486.918, 372.072 485.716, 374.530 485.097 C 376.989 484.478, 379 483.528, 379 482.986 C 379 481.755, 380.896 481.874, 358.154 481.672 C 347.514 481.577, 338.600 481.837, 338.345 482.250 M 420.345 482.250 C 419.447 483.705, 421 484.744, 425.038 485.390 C 432.105 486.520, 432.405 488.129, 432.456 525.095 C 432.491 550.149, 432.214 557.225, 431.116 559.279 C 429.783 561.773, 426.702 563.536, 422.500 564.208 C 421.400 564.383, 420.500 565.196, 420.500 566.014 C 420.500 567.302, 425.487 567.500, 458 567.500 L 495.500 567.500 495.783 555.656 C 495.997 546.680, 495.770 543.910, 494.845 544.218 C 494.174 544.442, 492.972 546.583, 492.174 548.977 C 491.362 551.414, 488.854 555.199, 486.474 557.578 C 482.790 561.263, 481.459 561.924, 476.467 562.547 C 470.529 563.289, 457.793 562.672, 454.810 561.497 C 453.880 561.131, 452.305 559.632, 451.310 558.166 C 449.653 555.726, 449.500 552.693, 449.500 522.404 C 449.500 486.061, 449.416 486.575, 455.565 485.422 C 458.628 484.847, 462.442 482.084, 460.372 481.939 C 453.319 481.444, 420.686 481.698, 420.345 482.250 M 496 482.893 C 496 485.045, 497.862 486, 502.059 486 C 504.102 486, 505.476 486.796, 506.727 488.706 C 508.336 491.161, 508.500 494.540, 508.500 525.277 L 508.500 559.143 505.241 561.821 C 498.909 567.025, 499.054 567.048, 536.750 566.763 L 571.500 566.500 571.500 556.514 C 571.500 547.798, 571.277 546.485, 569.750 546.190 C 568.559 545.961, 568 546.486, 568 547.832 C 568 551.599, 563.829 557.727, 559.625 560.136 C 555.964 562.234, 554.243 562.500, 544.331 562.500 C 534.023 562.500, 532.971 562.321, 530.691 560.179 C 527.001 556.713, 525.870 550.997, 526.204 537.500 L 526.500 525.500 531 525.709 C 539.998 526.128, 542.922 528.033, 545.282 535.016 C 546.116 537.482, 547.406 539.500, 548.149 539.500 C 549.223 539.500, 549.556 535.856, 549.773 521.750 C 550.012 506.245, 549.850 504, 548.492 504 C 547.637 504, 546.779 504.563, 546.587 505.250 C 544.317 513.341, 543.280 515.441, 540.559 517.463 C 537.347 519.851, 529.340 521.446, 527.202 520.125 C 526.261 519.543, 526.017 515.255, 526.224 502.925 L 526.500 486.500 535.500 486.178 C 550.786 485.631, 558.334 488.595, 560.510 496 C 561.669 499.945, 563.025 501.224, 564.633 499.890 C 566.047 498.716, 566.616 485.768, 565.393 482.582 C 564.856 481.182, 560.832 481, 530.393 481 C 497.315 481, 496 481.072, 496 482.893 M 661.473 482.044 C 660.366 483.835, 662.993 485.875, 666.819 486.194 C 673.215 486.728, 673.457 488.035, 673.804 523.914 C 674.133 558.009, 673.910 559.759, 668.861 562.741 C 667.277 563.677, 666.135 564.905, 666.323 565.471 C 666.547 566.143, 678.666 566.591, 701.242 566.763 L 735.818 567.026 736.514 558.676 C 736.896 554.083, 737.044 549.465, 736.841 548.413 C 736.202 545.094, 733.576 546.287, 732.249 550.500 C 731.514 552.831, 729.303 556.034, 726.950 558.175 C 723.458 561.353, 722.021 561.946, 716.333 562.555 C 708.750 563.367, 698.855 562.551, 696.203 560.895 C 692.277 558.443, 691.451 553.609, 691.803 535.156 L 692 524.812 697.250 525.521 C 705.198 526.595, 709.167 529.457, 710.393 535 C 711.246 538.857, 712.724 540.676, 713.983 539.417 C 714.677 538.723, 714.954 532.439, 714.775 521.425 C 714.544 507.192, 714.262 504.500, 713.004 504.500 C 712.045 504.500, 711.177 506.073, 710.583 508.888 C 709.246 515.226, 704.600 519.555, 698.359 520.278 C 695.687 520.587, 693.149 520.503, 692.719 520.089 C 692.071 519.466, 691.622 502.039, 691.923 489.250 L 692 486 701.557 486 C 714.420 486, 719.303 487.331, 723.032 491.855 C 724.664 493.835, 726 496.198, 726 497.105 C 726 499.013, 728.370 501.296, 729.342 500.325 C 729.704 499.963, 730 495.467, 730 490.333 L 730 481 696.059 481 C 673.561 481, 661.901 481.352, 661.473 482.044 M 282.147 486.209 C 276.868 488.767, 270.851 496.109, 268.179 503.252 C 263.075 516.892, 263.612 536.915, 269.419 549.500 C 274.699 560.945, 282.211 566.056, 294.074 566.274 C 301.981 566.419, 306.303 564.621, 311.275 559.118 C 319.197 550.348, 322.794 534.428, 320.891 516.553 C 319.124 499.956, 314.096 490.615, 304.499 486.105 C 298.401 483.238, 288.179 483.286, 282.147 486.209 M 110 599.321 C 98.703 602.333, 89.711 609.656, 84.816 619.832 C 81.959 625.771, 81.614 627.429, 81.659 635 C 81.698 641.701, 82.198 644.558, 84.022 648.500 C 89.011 659.287, 96.788 666.241, 107.965 669.910 C 133.241 678.208, 160 660.300, 160 635.087 C 160 620.607, 148.738 605.250, 134.634 600.500 C 128.199 598.332, 115.916 597.744, 110 599.321 M 384.500 599.305 C 377.057 601.464, 370 610.990, 370 618.877 C 370 624.778, 376.675 633.272, 384 636.693 C 385.375 637.335, 389.515 639.254, 393.201 640.957 C 396.886 642.661, 401.273 645.427, 402.951 647.104 C 405.595 649.749, 406 650.869, 406 655.544 C 406 660.380, 405.637 661.296, 402.467 664.467 C 399.304 667.630, 398.373 668, 393.589 668 C 383.827 668, 377.302 663.316, 373.615 653.663 C 370.945 646.671, 369.548 648.201, 369.209 658.489 C 368.893 668.062, 369.577 669.832, 372.904 668.051 C 374.549 667.171, 375.748 667.252, 378.262 668.415 C 385.145 671.599, 390.572 672.307, 397.738 670.957 C 408.733 668.886, 413.420 665.986, 417.057 659 C 418.958 655.349, 418.713 645.021, 416.621 640.613 C 414.081 635.260, 403.096 627.996, 390 623.009 C 383.989 620.720, 381.997 618.240, 382.022 613.076 C 382.085 600.230, 397.752 597.773, 406.102 609.299 C 407.727 611.543, 409.318 614.418, 409.637 615.689 C 410.189 617.889, 412.428 618.848, 413.283 617.250 C 413.832 616.225, 412.465 601.132, 411.760 600.427 C 411.449 600.116, 410.309 600.415, 409.226 601.091 C 407.629 602.088, 406.479 602.009, 403.131 600.669 C 397.646 598.474, 389.434 597.873, 384.500 599.305 M 447.500 599.169 C 438.576 602.175, 432.156 606.771, 427.736 613.314 C 422.672 620.813, 421.790 623.863, 421.741 634.038 C 421.700 642.732, 421.976 644.163, 424.860 650.206 C 434.597 670.608, 459.236 677.352, 478.741 664.954 C 480.777 663.661, 481.126 663.735, 482.548 665.765 C 483.409 666.994, 484.538 668, 485.057 668 C 486.114 668, 486.387 645.720, 485.342 644.675 C 484.307 643.640, 482 646.043, 482 648.156 C 482 650.507, 477.917 658.677, 475.173 661.818 C 472.800 664.533, 464.280 668, 459.978 668 C 455.829 668, 448.482 664.361, 445.518 660.839 C 440.194 654.512, 438 647.034, 438 635.217 C 438 622.484, 440.273 614.394, 445.644 608.011 C 449.142 603.854, 454.015 601.997, 461.372 602.016 C 470.324 602.040, 474.597 604.750, 478.729 613.022 C 480.505 616.577, 482.418 619.639, 482.979 619.826 C 483.626 620.042, 484 616.677, 484 610.642 C 484 600.922, 482.910 598.036, 480.488 601.347 C 479.025 603.349, 478.654 603.367, 474.651 601.641 C 472.918 600.893, 470.241 599.768, 468.703 599.141 C 465.305 597.755, 451.643 597.773, 447.500 599.169 M 518 599.446 C 502.096 603.926, 489.975 618.845, 490.011 633.899 C 490.041 646.779, 499.787 661.875, 511.731 667.543 C 521.047 671.963, 529.429 672.905, 538.478 670.548 C 553.853 666.543, 565.196 654.773, 568.021 639.893 C 571.424 621.973, 557.744 603.271, 538.201 599.124 C 531.483 597.699, 523.767 597.822, 518 599.446 M 655.845 599.426 C 650.011 601.666, 647.091 603.989, 644.459 608.480 C 641.047 614.302, 641.025 622.671, 644.409 627.651 C 647.243 631.822, 654.300 636.716, 662 639.849 C 675.799 645.464, 680.783 652.717, 676.515 660.971 C 674.134 665.574, 669.891 668, 664.218 668 C 654.882 668, 648.697 663.454, 644.933 653.829 C 642.044 646.439, 640.539 648.167, 640.214 659.250 C 639.943 668.485, 640.035 669, 641.964 669 C 643.084 669, 644 668.550, 644 668 C 644 666.632, 645.614 666.745, 649.349 668.374 C 656.790 671.620, 660.955 672.188, 668.265 670.955 C 680.226 668.938, 685.431 665.690, 688.510 658.323 C 691.277 651.700, 689.750 641.841, 685.150 636.630 C 683.574 634.844, 673.509 628, 672.459 628 C 672.183 628, 668.124 626.213, 663.439 624.028 C 656.119 620.614, 654.709 619.548, 653.412 616.444 C 652.011 613.090, 652.050 612.528, 653.966 608.570 C 655.101 606.226, 657.169 603.788, 658.562 603.154 C 662.466 601.375, 668.140 601.788, 671.982 604.130 C 676.063 606.618, 677.227 608.020, 679.974 613.750 C 681.094 616.087, 682.458 618, 683.005 618 C 683.591 618, 684 614.302, 684 609 C 684 602.022, 683.690 600, 682.622 600 C 681.865 600, 680.715 600.639, 680.067 601.419 C 679.059 602.634, 678.239 602.551, 674.370 600.839 C 668.494 598.240, 660.516 597.632, 655.845 599.426 M 158 601.401 C 158 602.194, 159.621 603.185, 161.738 603.685 C 167.735 605.104, 167.971 606.288, 167.971 635 C 167.971 663.282, 167.690 664.770, 162.018 666.617 C 160.132 667.231, 158.419 668.244, 158.211 668.867 C 157.939 669.682, 162.656 670, 175 670 C 187.940 670, 192.068 669.704, 191.765 668.796 C 191.545 668.134, 189.820 667.201, 187.932 666.723 C 186.044 666.245, 183.892 665.262, 183.148 664.539 C 181.630 663.063, 180.279 644.007, 181.381 639.617 C 181.961 637.307, 182.534 637.002, 186.269 637.015 C 192.378 637.036, 195.110 638.801, 196.771 643.800 C 199.303 651.418, 200.500 648.433, 200.500 634.500 C 200.500 620.099, 199.447 617.944, 195.997 625.282 C 193.525 630.542, 190.755 632.256, 185.433 631.821 L 181.500 631.500 181.192 622 C 181.022 616.775, 181.162 610.587, 181.503 608.250 L 182.123 604 190.412 604 C 194.971 604, 200.231 604.526, 202.101 605.169 C 205.900 606.475, 209.762 610.386, 210.207 613.376 C 210.368 614.458, 211.126 615.550, 211.892 615.802 C 213.040 616.181, 213.157 614.969, 212.559 608.901 C 212.160 604.852, 211.619 601.193, 211.358 600.770 C 211.096 600.346, 198.984 600, 184.441 600 C 162.438 600, 158 600.235, 158 601.401 M 234 601.376 C 234 602.162, 235.278 603.250, 236.839 603.794 C 240.037 604.909, 242.536 609.528, 245.600 619.982 C 246.645 623.546, 250.883 636.596, 255.018 648.982 C 262.081 670.137, 262.684 671.500, 264.978 671.500 C 267.243 671.500, 267.799 670.351, 272.714 655.500 C 275.626 646.700, 278.396 638.150, 278.869 636.500 C 282.948 622.280, 283.142 621.905, 284.712 625.230 C 285.302 626.478, 288.576 636.275, 291.989 647 C 300.408 673.460, 299.771 672, 302.903 672 C 305.217 672, 305.743 671.381, 306.942 667.250 C 307.700 664.638, 309.148 659.800, 310.159 656.500 C 313.213 646.534, 313.736 644.799, 316.034 637 C 317.250 632.875, 319.042 627.025, 320.017 624 C 320.992 620.975, 322.387 616.357, 323.116 613.738 C 323.846 611.119, 325.426 607.744, 326.627 606.238 C 328.489 603.903, 329.555 603.500, 333.862 603.500 C 342.063 603.500, 341.931 602.977, 341.968 635.628 C 342.003 666.228, 342.213 665.119, 336.068 666.706 C 334.180 667.193, 332.455 668.134, 332.235 668.796 C 331.932 669.704, 336.060 670, 349 670 C 361.871 670, 366.067 669.701, 365.768 668.805 C 365.549 668.147, 364.113 667.273, 362.577 666.862 C 361.042 666.452, 358.933 665.345, 357.893 664.403 C 356.121 662.799, 356 660.885, 356 634.404 C 356 603.996, 355.747 605.418, 361.500 603.500 C 368.605 601.132, 363.974 600.495, 337.750 600.234 C 323.038 600.087, 311 600.335, 311 600.784 C 311 602.219, 313.340 604, 315.225 604 C 320.342 604, 319.364 613.913, 312.069 636 C 308.861 645.712, 307.461 648.805, 306.651 647.971 C 306.399 647.712, 302.982 637.825, 299.057 626 C 290.835 601.229, 290.303 600, 287.810 600 C 286.791 600, 285.550 601.013, 285.053 602.250 C 284.147 604.503, 279 620.979, 276.852 628.500 C 273.933 638.722, 270.405 648.368, 269.471 648.678 C 268.905 648.866, 267.825 646.877, 267.070 644.260 C 266.314 641.642, 264.028 634.325, 261.988 628 C 254.704 605.411, 254.711 605.664, 261.249 603.551 C 267.667 601.476, 264.077 600.501, 249.002 600.224 C 236.540 599.995, 234 600.190, 234 601.376 M 564 600.995 C 564 601.542, 566.062 602.959, 568.581 604.143 C 571.307 605.424, 573.534 607.275, 574.081 608.713 C 575.095 611.381, 575.138 656.721, 574.131 661.500 C 573.646 663.800, 572.507 664.948, 569.249 666.421 C 566.912 667.478, 565 668.715, 565 669.171 C 565 669.627, 570.625 670, 577.500 670 C 590.115 670, 592.876 669.104, 586.621 667.040 C 579.668 664.745, 579.538 664.269, 579.164 639.783 C 578.961 626.500, 579.211 617.389, 579.793 616.807 C 580.413 616.187, 583.922 619.715, 589.604 626.671 C 594.470 632.627, 598.697 637.725, 598.998 638 C 599.299 638.275, 603.077 642.775, 607.394 648 C 611.710 653.225, 616.209 658.625, 617.392 660 C 618.574 661.375, 620.840 664.209, 622.426 666.298 C 626.075 671.102, 628.623 672.558, 630.564 670.947 C 631.753 669.960, 632 664.618, 632 639.828 C 632 607.288, 632.364 604.879, 637.465 603.598 C 638.859 603.248, 640 602.280, 640 601.447 C 640 600.171, 638.319 599.977, 629.331 600.216 C 621.859 600.415, 618.538 600.877, 618.245 601.758 C 617.995 602.513, 619.052 603.260, 620.892 603.628 C 624.946 604.439, 625.617 605.421, 626.908 612.434 C 628.499 621.078, 628.376 650.287, 626.750 649.767 C 626.063 649.546, 620.636 643.546, 614.690 636.433 C 608.745 629.320, 603.120 622.593, 602.190 621.485 C 601.261 620.376, 598.475 617.006, 596 613.995 C 590.768 607.629, 587.044 603.281, 585.179 601.361 C 583.587 599.721, 564 599.383, 564 600.995 M 690.227 601.181 C 690.444 601.831, 692.036 602.843, 693.766 603.431 C 699.578 605.406, 699.475 604.882, 699.810 634.132 C 700.155 664.146, 699.966 665.174, 693.813 666.769 C 692.066 667.221, 690.455 668.134, 690.235 668.796 C 689.735 670.294, 722.546 670.544, 723.470 669.049 C 723.793 668.526, 722.239 667.553, 720.017 666.887 C 717.795 666.221, 715.537 665.147, 715.001 664.501 C 713.592 662.804, 713.088 609.457, 714.454 606.716 C 715.043 605.534, 716.982 604.150, 718.763 603.639 C 720.543 603.128, 722 602.101, 722 601.355 C 722 600.271, 718.783 600, 705.917 600 C 693.995 600, 689.935 600.306, 690.227 601.181 M 726 600.960 C 726 601.526, 728.062 602.959, 730.581 604.143 C 733.307 605.424, 735.534 607.275, 736.081 608.713 C 737.142 611.504, 737.229 654.530, 736.186 660.500 C 735.577 663.980, 734.935 664.750, 731.243 666.421 C 728.909 667.478, 727 668.715, 727 669.171 C 727 670.312, 750.744 670.224, 751.450 669.081 C 751.763 668.575, 750.339 667.607, 748.287 666.930 C 741.415 664.662, 741.537 665.134, 741.156 639.322 C 740.940 624.635, 741.173 616, 741.786 616 C 742.321 616, 744.486 618.138, 746.596 620.750 C 748.706 623.362, 750.679 625.725, 750.980 626 C 751.281 626.275, 753.540 628.975, 756 632 C 758.460 635.025, 760.710 637.725, 761 638 C 761.290 638.275, 763.540 640.975, 766 644 C 768.460 647.025, 770.710 649.725, 771 650 C 771.290 650.275, 773.540 652.975, 776 656 C 778.460 659.025, 780.727 661.725, 781.039 662 C 781.351 662.275, 782.889 664.209, 784.458 666.298 C 788.060 671.094, 790.619 672.561, 792.564 670.947 C 793.753 669.960, 794 664.633, 794 639.943 C 794 622.602, 794.416 609.036, 794.994 607.515 C 795.580 605.974, 797.241 604.463, 799.040 603.836 C 800.718 603.251, 801.920 602.261, 801.712 601.636 C 801.154 599.962, 780.808 600.077, 780.247 601.758 C 779.995 602.514, 781.050 603.260, 782.892 603.628 C 787.256 604.501, 787.919 605.736, 789.060 615.128 C 790.305 625.378, 789.912 649.513, 788.500 649.468 C 787.950 649.451, 778.269 638.426, 766.987 624.968 L 746.474 600.500 736.237 600.215 C 729.697 600.033, 726 600.302, 726 600.960 M 109.470 605.250 C 101.372 610.785, 98 619.720, 98 635.648 C 98 650.664, 101.370 659.214, 109.470 664.750 C 113.622 667.588, 115.043 668, 120.663 668 C 127.712 668, 131.069 666.692, 135.186 662.339 C 141.381 655.790, 144.837 640.555, 142.987 627.951 C 140.402 610.343, 133.101 602, 120.275 602 C 115.093 602, 113.545 602.466, 109.470 605.250 M 520.213 603.459 C 514.054 606.859, 509.648 613.876, 507.147 624.264 C 503.445 639.642, 508.592 658.220, 518.363 664.750 C 522.551 667.549, 524.091 668, 529.459 668 C 533.108 668, 536.992 667.352, 538.825 666.437 C 543.046 664.332, 547.446 658.801, 548.963 653.694 C 549.648 651.387, 550.611 648.466, 551.104 647.203 C 552.509 643.601, 552.153 627.686, 550.529 621.449 C 548.597 614.034, 544.565 607.814, 539.607 604.598 C 536.267 602.433, 534.508 602.016, 529.050 602.098 C 525.447 602.152, 521.471 602.764, 520.213 603.459" stroke="none" fill="#f7fafa" fill-rule="evenodd"/></svg>